<?xml version="1.0" encoding="UTF-8" standalone="no"?>
<!DOCTYPE svg PUBLIC "-//W3C//DTD SVG 1.1//EN" "http://www.w3.org/Graphics/SVG/1.1/DTD/svg11.dtd">
<svg width="100%" height="100%" viewBox="0 0 461 344" version="1.1" xmlns="http://www.w3.org/2000/svg" xmlns:xlink="http://www.w3.org/1999/xlink" xml:space="preserve" xmlns:serif="http://www.serif.com/" style="fill-rule:evenodd;clip-rule:evenodd;stroke-linejoin:round;stroke-miterlimit:2;">
    <g transform="matrix(1,0,0,1,0,-1971)">
        <g id="logo-vertical-color-dark" transform="matrix(1.088017,0,0,1.078289,0,1095.100442)">
            <rect x="0" y="813" width="423.367" height="317.651" style="fill:none;"/>
            <g id="logo-vertical-color-light" transform="matrix(0.919104,0,0,0.927395,-1448.499356,365.4611)">
                <g id="nomenclator" transform="matrix(4.166667,0,0,4.166667,-1048.608645,94.960716)">
                    <path d="M655.18,170.272C655.495,170.435 655.739,170.648 655.912,170.912C656.166,171.257 656.298,171.664 656.298,172.121C656.298,172.496 656.206,172.842 656.023,173.157C655.841,173.471 655.566,173.725 655.211,173.918C654.855,174.111 654.419,174.203 653.891,174.203L651.017,174.203L651.017,166.87L653.799,166.87C654.297,166.87 654.713,166.962 655.038,167.144C655.363,167.327 655.607,167.561 655.769,167.845C655.932,168.129 656.013,168.444 656.013,168.769C656.013,169.155 655.912,169.49 655.698,169.785C655.566,169.968 655.394,170.13 655.18,170.272ZM654.815,172.801C655.018,172.578 655.12,172.314 655.109,171.999C655.109,171.796 655.069,171.603 654.977,171.43C654.886,171.257 654.754,171.115 654.581,171.014C654.409,170.912 654.195,170.861 653.952,170.861L652.225,170.861L652.225,173.146L653.952,173.146C654.327,173.146 654.612,173.035 654.815,172.801ZM652.235,167.916L652.235,169.825L653.789,169.825C654.104,169.825 654.348,169.744 654.541,169.582C654.734,169.419 654.825,169.186 654.825,168.871C654.825,168.556 654.734,168.322 654.541,168.16C654.358,167.997 654.104,167.916 653.789,167.916L652.235,167.916ZM659.903,166.87L660.736,166.87L663.732,174.203L662.432,174.203L661.873,172.791L658.725,172.791L658.166,174.203L656.887,174.203L659.903,166.87ZM659.152,171.735L661.477,171.735L660.319,168.81L659.152,171.735ZM668.555,170.83C668.261,170.973 667.936,171.054 667.57,171.095L670.14,174.212L668.627,174.212L666.118,171.105L665.803,171.105L665.803,174.212L664.595,174.212L664.595,166.88L667.337,166.88C667.804,166.88 668.21,166.971 668.555,167.154C668.901,167.337 669.175,167.591 669.368,167.906C669.561,168.231 669.652,168.586 669.652,168.992C669.652,169.419 669.561,169.784 669.368,170.099C669.175,170.414 668.901,170.658 668.555,170.83ZM665.803,170.089L667.286,170.089C667.652,170.089 667.946,169.998 668.149,169.805C668.352,169.612 668.454,169.348 668.454,169.002C668.454,168.698 668.352,168.444 668.149,168.231C667.946,168.017 667.652,167.916 667.286,167.916L665.803,167.916L665.803,170.089ZM675.309,172.943C675.613,172.811 675.877,172.628 676.111,172.395L676.924,173.207C676.588,173.542 676.192,173.817 675.735,174.01C675.278,174.203 674.76,174.304 674.171,174.304C673.643,174.304 673.146,174.213 672.699,174.02C672.252,173.827 671.856,173.563 671.521,173.217C671.185,172.872 670.932,172.466 670.749,172.009C670.566,171.552 670.475,171.064 670.475,170.536C670.475,170.008 670.566,169.521 670.749,169.064C670.932,168.607 671.185,168.211 671.521,167.865C671.856,167.53 672.252,167.256 672.699,167.063C673.146,166.87 673.643,166.769 674.171,166.769C674.77,166.769 675.278,166.87 675.715,167.063C676.141,167.256 676.527,167.52 676.863,167.855L676.05,168.668C675.837,168.424 675.573,168.241 675.258,168.109C674.943,167.977 674.588,167.906 674.171,167.906C673.806,167.906 673.481,167.977 673.176,168.099C672.871,168.221 672.617,168.404 672.394,168.637C672.171,168.871 672.008,169.145 671.886,169.47C671.764,169.785 671.703,170.14 671.703,170.526C671.703,170.912 671.764,171.257 671.886,171.582C672.008,171.907 672.171,172.182 672.394,172.415C672.617,172.649 672.871,172.832 673.176,172.953C673.481,173.085 673.806,173.146 674.171,173.146C674.618,173.146 674.994,173.075 675.309,172.943ZM679.087,170.983L679.087,173.096L682.814,173.096L682.814,174.203L677.889,174.203L677.889,166.87L682.763,166.87L682.763,167.967L679.087,167.967L679.087,169.927L682.459,169.927L682.459,170.983L679.087,170.983ZM685.16,166.87L685.16,173.096L688.613,173.096L688.613,174.203L683.962,174.203L683.962,166.87L685.16,166.87ZM695.052,167.855C695.387,168.201 695.651,168.607 695.854,169.064C696.047,169.521 696.138,170.008 696.138,170.536C696.138,171.064 696.047,171.552 695.854,172.009C695.661,172.466 695.397,172.862 695.062,173.207C694.717,173.542 694.331,173.817 693.874,174.01C693.417,174.203 692.939,174.304 692.421,174.304C691.903,174.304 691.416,174.203 690.959,174.01C690.502,173.817 690.106,173.542 689.761,173.197C689.415,172.852 689.151,172.446 688.958,171.989C688.765,171.532 688.674,171.044 688.674,170.516C688.674,169.998 688.765,169.511 688.958,169.054C689.151,168.597 689.405,168.201 689.75,167.855C690.096,167.51 690.492,167.246 690.939,167.053C691.396,166.86 691.873,166.769 692.401,166.769C692.929,166.769 693.417,166.86 693.863,167.053C694.31,167.246 694.706,167.51 695.052,167.855ZM694.585,171.887C694.798,171.491 694.899,171.044 694.889,170.526C694.889,170.14 694.828,169.785 694.706,169.47C694.585,169.155 694.412,168.881 694.188,168.647C693.965,168.414 693.701,168.231 693.396,168.109C693.102,167.977 692.757,167.916 692.391,167.916C691.903,167.916 691.477,168.018 691.101,168.241C690.725,168.454 690.431,168.769 690.218,169.155C690.004,169.541 689.903,169.998 689.903,170.516C689.903,170.902 689.964,171.257 690.086,171.582C690.207,171.907 690.38,172.182 690.603,172.415C690.827,172.649 691.091,172.821 691.396,172.953C691.7,173.085 692.035,173.146 692.401,173.146C692.888,173.146 693.325,173.035 693.701,172.811C694.077,172.588 694.371,172.283 694.585,171.887ZM701.968,171.928L701.968,166.87L703.177,166.87L703.177,174.203L702.334,174.203L698.464,169.145L698.464,174.203L697.256,174.203L697.256,166.87L698.099,166.87L701.968,171.928ZM707.127,166.87L707.959,166.87L710.955,174.203L709.655,174.203L709.097,172.791L705.949,172.791L705.39,174.203L704.11,174.203L707.127,166.87ZM706.375,171.735L708.701,171.735L707.543,168.81L706.375,171.735ZM716.349,169.582L716.349,170.171L713.952,170.171L713.952,169.795L715.242,168.444C715.333,168.343 715.404,168.262 715.465,168.18C715.526,168.109 715.567,168.038 715.587,167.967C715.618,167.896 715.628,167.825 715.628,167.754C715.628,167.612 715.587,167.5 715.496,167.419C715.404,167.337 715.283,167.297 715.14,167.297C714.988,167.297 714.856,167.337 714.744,167.419C714.633,167.49 714.521,167.612 714.419,167.784L713.962,167.398C714.094,167.165 714.267,166.992 714.47,166.87C714.673,166.748 714.907,166.688 715.171,166.688C715.394,166.688 715.597,166.738 715.76,166.82C715.922,166.911 716.054,167.033 716.146,167.185C716.237,167.337 716.278,167.52 716.278,167.734C716.278,167.866 716.258,167.998 716.227,168.109C716.197,168.221 716.136,168.333 716.054,168.444C715.973,168.556 715.861,168.678 715.729,168.82L714.978,169.582L716.349,169.582ZM717.201,169.988C716.978,169.846 716.805,169.622 716.673,169.358C716.541,169.094 716.48,168.779 716.48,168.424C716.48,168.068 716.541,167.754 716.673,167.5C716.805,167.246 716.978,167.033 717.191,166.89C717.405,166.738 717.648,166.667 717.912,166.667C718.176,166.667 718.43,166.748 718.644,166.89C718.867,167.033 719.04,167.236 719.162,167.5C719.283,167.764 719.344,168.079 719.344,168.434C719.344,168.79 719.283,169.104 719.162,169.368C719.04,169.632 718.867,169.846 718.654,169.988C718.44,170.14 718.197,170.211 717.933,170.211C717.659,170.211 717.415,170.14 717.201,169.988ZM717.252,167.794C717.191,167.967 717.151,168.18 717.151,168.424C717.151,168.688 717.181,168.901 717.242,169.074C717.303,169.247 717.394,169.379 717.506,169.46C717.618,169.551 717.75,169.592 717.912,169.592C718.075,169.592 718.207,169.541 718.319,169.46C718.43,169.379 718.522,169.247 718.583,169.074C718.644,168.901 718.674,168.688 718.674,168.434C718.674,168.18 718.644,167.967 718.583,167.794C718.522,167.622 718.43,167.49 718.319,167.408C718.207,167.327 718.065,167.287 717.912,167.287C717.76,167.287 717.628,167.327 717.516,167.408C717.405,167.5 717.313,167.622 717.252,167.794ZM715.831,172.862L715.069,173.634L716.45,173.634L716.45,174.213L714.054,174.213L714.054,173.837L715.344,172.486C715.435,172.385 715.506,172.304 715.567,172.222C715.628,172.151 715.668,172.08 715.689,172.009C715.719,171.938 715.729,171.867 715.729,171.796C715.729,171.654 715.689,171.542 715.597,171.461C715.506,171.379 715.384,171.339 715.242,171.339C715.09,171.339 714.958,171.379 714.846,171.461C714.734,171.532 714.622,171.654 714.521,171.826L714.064,171.44C714.196,171.207 714.369,171.034 714.572,170.912C714.775,170.79 715.008,170.729 715.272,170.729C715.496,170.729 715.699,170.78 715.861,170.862C716.024,170.953 716.156,171.075 716.247,171.227C716.339,171.379 716.379,171.562 716.379,171.776C716.379,171.908 716.359,172.04 716.329,172.151C716.298,172.263 716.237,172.375 716.156,172.486C716.075,172.598 715.963,172.72 715.831,172.862ZM718.745,172.069C718.908,172.171 719.04,172.293 719.131,172.455C719.233,172.618 719.284,172.811 719.284,173.034C719.284,173.258 719.233,173.461 719.121,173.644C719.01,173.826 718.867,173.969 718.674,174.08C718.481,174.192 718.268,174.243 718.035,174.243C717.801,174.243 717.588,174.192 717.405,174.08C717.222,173.979 717.08,173.837 716.968,173.654C716.857,173.481 716.806,173.278 716.806,173.055C716.806,172.75 716.917,172.445 717.121,172.141L718.075,170.77L718.837,170.77L718.004,171.937C718.055,171.937 718.116,171.927 718.187,171.927C718.39,171.927 718.583,171.978 718.745,172.069ZM718.563,173.359C718.613,173.268 718.644,173.156 718.644,173.044C718.644,172.923 718.613,172.821 718.563,172.73C718.512,172.638 718.441,172.567 718.349,172.516C718.258,172.466 718.156,172.435 718.045,172.435C717.933,172.435 717.831,172.466 717.74,172.516C717.649,172.577 717.578,172.648 717.527,172.74C717.476,172.831 717.446,172.933 717.446,173.044C717.446,173.166 717.476,173.268 717.527,173.359C717.578,173.461 717.649,173.532 717.74,173.583C717.831,173.633 717.933,173.664 718.045,173.664C718.156,173.664 718.258,173.633 718.349,173.583C718.441,173.522 718.512,173.451 718.563,173.359Z" style="fill:white;"/>
                </g>
                <g id="symbol" transform="matrix(1.307272,0,0,1.307272,-1259.023165,-160.595587)">
                    <g transform="matrix(4.166667,0,0,4.166667,661,476)">
                        <path d="M417.901,12.086C417.901,14.26 417.037,16.291 415.514,17.804C417.037,19.317 417.901,21.348 417.901,23.522C417.901,27.97 414.285,31.585 409.837,31.585C407.664,31.585 405.633,30.722 404.119,29.199C402.606,30.722 400.575,31.585 398.402,31.585C393.953,31.585 390.338,27.97 390.338,23.522C390.338,21.348 391.201,19.317 392.725,17.804C391.201,16.291 390.338,14.26 390.338,12.086C390.338,7.638 393.953,4.022 398.402,4.022C400.575,4.022 402.606,4.886 404.119,6.409C405.633,4.886 407.664,4.022 409.837,4.022C414.285,4.022 417.901,7.638 417.901,12.086ZM410.091,15.417C410.01,15.204 410.02,14.981 410.111,14.778C410.203,14.574 410.375,14.422 410.589,14.351C411.563,14.026 412.213,13.112 412.213,12.086C412.213,10.766 411.147,9.7 409.827,9.7C408.801,9.7 407.887,10.35 407.562,11.325C407.491,11.538 407.339,11.71 407.136,11.802C407.024,11.853 406.902,11.873 406.79,11.873C406.689,11.873 406.587,11.853 406.486,11.812C405.724,11.507 404.922,11.355 404.099,11.355C403.276,11.355 402.474,11.507 401.712,11.812C401.611,11.853 401.509,11.873 401.408,11.873C401.286,11.873 401.174,11.853 401.062,11.802C400.859,11.71 400.707,11.538 400.636,11.325C400.311,10.35 399.397,9.7 398.371,9.7C397.051,9.7 395.985,10.766 395.985,12.086C395.985,13.112 396.634,14.026 397.609,14.351C397.823,14.422 397.995,14.574 398.087,14.778C398.188,14.981 398.188,15.214 398.107,15.417C397.802,16.179 397.65,16.981 397.65,17.804C397.65,18.626 397.802,19.429 398.107,20.19C398.188,20.394 398.178,20.627 398.087,20.83C397.995,21.033 397.823,21.186 397.609,21.257C396.634,21.582 395.985,22.496 395.985,23.522C395.985,24.842 397.051,25.908 398.371,25.908C399.397,25.908 400.311,25.258 400.636,24.283C400.707,24.07 400.859,23.897 401.062,23.806C401.174,23.755 401.296,23.735 401.408,23.735C401.509,23.735 401.611,23.755 401.712,23.796C402.474,24.1 403.276,24.253 404.099,24.253C404.922,24.253 405.724,24.1 406.486,23.796C406.587,23.755 406.689,23.735 406.79,23.735C406.912,23.735 407.024,23.755 407.136,23.806C407.339,23.897 407.491,24.07 407.562,24.283C407.887,25.258 408.801,25.908 409.827,25.908C411.147,25.908 412.213,24.842 412.213,23.522C412.213,22.496 411.563,21.582 410.589,21.257C410.375,21.186 410.203,21.033 410.111,20.83C410.01,20.627 410.01,20.394 410.091,20.19C410.396,19.429 410.548,18.626 410.548,17.804C410.548,16.981 410.396,16.179 410.091,15.417ZM404.109,13.792C406.323,13.792 408.121,15.59 408.121,17.803C408.121,20.018 406.323,21.815 404.109,21.815C401.895,21.815 400.098,20.018 400.098,17.803C400.098,15.59 401.895,13.792 404.109,13.792ZM404.109,14.605C402.342,14.605 400.91,16.036 400.91,17.803C400.91,19.571 402.342,21.003 404.109,21.003C405.876,21.003 407.308,19.571 407.308,17.803C407.308,16.036 405.876,14.605 404.109,14.605Z" style="fill:white;"/>
                    </g>
                    <g transform="matrix(4.166667,0,0,4.166667,661,476)">
                        <path d="M401.428,24.537C402.261,24.872 403.165,25.055 404.129,25.065C404.373,25.065 404.607,25.045 404.851,25.025L404.505,26.111C404.475,26.111 404.444,26.111 404.424,26.121L401.164,27.167L400.453,25.969C400.9,25.593 401.235,25.106 401.428,24.537ZM398.391,26.72C398.96,26.72 399.488,26.568 399.955,26.324L400.605,27.421L398.269,28.741L393.902,25.593L393.984,21.073L395.751,17.367L396.868,17.356C396.868,17.499 396.858,17.641 396.858,17.793C396.858,18.748 397.04,19.652 397.376,20.484C396.106,20.911 395.192,22.109 395.192,23.521C395.192,25.288 396.624,26.72 398.391,26.72ZM406.801,24.537C407.146,25.573 408.009,26.375 409.086,26.629L407.369,27.665L405.054,26.365L405.511,24.923C405.958,24.832 406.384,24.7 406.801,24.537ZM396.929,16.747L395.71,16.747L393.12,13.558L395.212,11.72C395.202,11.831 395.192,11.953 395.192,12.075C395.192,13.487 396.106,14.685 397.375,15.112C397.162,15.63 397.01,16.178 396.929,16.747ZM416.997,22.374C417.058,22.75 417.088,23.136 417.088,23.512C417.088,25.746 416.062,27.757 414.468,29.087L415.189,25.858C415.219,25.756 415.199,25.654 415.138,25.573C415.077,25.502 414.996,25.461 414.905,25.461L414.874,25.461L412.102,25.776C412.335,25.543 412.528,25.268 412.68,24.974L415.646,22.374L416.997,22.374ZM416.083,15.752C415.616,16.544 415.006,17.234 414.285,17.793C415.544,18.778 416.469,20.169 416.865,21.764L415.666,21.764L413.016,18.494L414.671,15.02L416.083,15.752ZM414.844,14.422L414.925,10.054L416.509,9.272C416.875,10.136 417.078,11.09 417.078,12.086C417.078,13.203 416.824,14.269 416.367,15.214L414.844,14.422ZM398.391,4.824C398.635,4.824 398.869,4.834 399.092,4.845L400.443,7.455L398.066,8.887C397.792,8.917 397.538,8.978 397.284,9.069L393.75,9.476L394.603,5.891C395.71,5.22 397.01,4.824 398.391,4.824ZM397.894,7.445C398.269,7.13 398.31,6.582 398.005,6.206C397.701,5.83 397.142,5.789 396.766,6.094C396.391,6.399 396.35,6.957 396.655,7.333C396.959,7.709 397.518,7.76 397.894,7.445ZM416.256,8.725L414.661,9.517L410.243,6.328L409.807,4.835L409.827,4.835C412.62,4.835 415.037,6.409 416.256,8.725ZM404.109,7.628C405.318,6.084 407.125,5.038 409.187,4.865L409.624,6.368L407.085,7.8L403.754,8.867L401.083,7.364L399.844,4.977C401.56,5.322 403.063,6.287 404.109,7.628ZM404.109,21.003C402.342,21.003 400.91,19.571 400.91,17.804C400.91,16.037 402.342,14.605 404.109,14.605C405.876,14.605 407.308,16.037 407.308,17.804C407.308,19.571 405.876,21.003 404.109,21.003Z" style="fill:rgb(255,130,0);"/>
                    </g>
                    <g transform="matrix(4.166667,0,0,4.166667,661,476)">
                        <path d="M392.136,19.855C392.603,19.063 393.212,18.362 393.933,17.814C392.674,16.829 391.75,15.437 391.354,13.843L392.552,13.843L395.203,17.113L393.547,20.586L392.136,19.855ZM393.374,21.186L393.293,25.553L391.708,26.335C391.343,25.471 391.14,24.517 391.14,23.522C391.14,22.404 391.394,21.338 391.851,20.394L393.374,21.186ZM410.934,26.527L414.478,26.131L413.625,29.716C412.518,30.386 411.218,30.782 409.837,30.782C409.593,30.782 409.36,30.772 409.126,30.752L407.775,28.142L410.152,26.71C410.426,26.679 410.68,26.618 410.934,26.527ZM410.325,28.163C409.959,28.478 409.908,29.026 410.213,29.402C410.518,29.777 411.076,29.818 411.452,29.514C411.828,29.209 411.868,28.65 411.564,28.275C411.259,27.899 410.7,27.848 410.325,28.163ZM393.567,26.091L397.985,29.28L398.422,30.773L398.401,30.773C395.608,30.773 393.191,29.199 391.973,26.883L393.567,26.091ZM404.475,26.74L407.135,28.233L408.374,30.62C406.658,30.274 405.155,29.31 404.109,27.969C402.911,29.513 401.093,30.559 399.041,30.742L398.604,29.239L401.143,27.807L404.475,26.74ZM392.582,13.223L392.582,13.233L391.231,13.233C391.17,12.857 391.14,12.471 391.14,12.085C391.14,9.851 392.165,7.84 393.76,6.51L393.039,9.739C393.008,9.841 393.029,9.942 393.09,10.024C393.151,10.095 393.232,10.135 393.323,10.135L393.354,10.135L396.126,9.821C395.893,10.054 395.7,10.328 395.547,10.623L392.582,13.223Z" style="fill:rgb(249,66,58);"/>
                    </g>
                    <g transform="matrix(4.166667,0,0,4.166667,661,476)">
                        <path d="M403.814,9.486L407.064,8.43L407.775,9.628C407.328,10.004 406.993,10.491 406.8,11.06C405.967,10.725 405.053,10.542 404.109,10.542C403.865,10.542 403.631,10.562 403.388,10.583L403.733,9.496C403.763,9.496 403.794,9.496 403.814,9.486ZM413.025,12.085C413.025,10.318 411.593,8.886 409.816,8.876C409.247,8.876 408.719,9.028 408.262,9.282L407.612,8.185L409.948,6.865L414.315,10.014L414.234,14.533L412.467,18.24L411.35,18.25C411.35,18.108 411.36,17.966 411.36,17.813C411.36,16.858 411.177,15.955 410.842,15.122C412.111,14.695 413.025,13.497 413.025,12.085ZM399.143,8.968L400.859,7.932L403.174,9.232L402.717,10.674C402.271,10.765 401.844,10.897 401.428,11.06C401.082,10.024 400.219,9.221 399.143,8.968ZM415.097,22.038L412.995,23.887C413.005,23.775 413.016,23.653 413.016,23.531C413.016,22.12 412.102,20.921 410.832,20.495C411.045,19.977 411.198,19.429 411.279,18.86L412.508,18.85L415.097,22.038Z" style="fill:rgb(255,199,44);"/>
                    </g>
                    <g transform="matrix(4.166667,0,0,4.166667,661,476)">
                        <path d="M397.457,9.029C397.477,9.019 397.508,9.019 397.528,9.009C397.498,9.009 397.477,9.019 397.457,9.029Z" style="fill:rgb(254,206,23);fill-rule:nonzero;"/>
                    </g>
                </g>
                <g transform="matrix(0.431706,0,0,0.431706,1657.641243,714.13975)">
                    <path d="M-0,21.155C1.88,21.155 3.793,20.799 5.643,20.047C11.422,17.698 14.94,12.156 14.995,6.284C15.067,4.292 14.74,2.286 13.996,0.394L-2.771,-42.244C-4.973,-47.844 -10.377,-51.526 -16.395,-51.526L-17.65,-51.526C-25.55,-51.526 -31.518,-45.45 -32.23,-38.324C-32.532,-35.872 -32.237,-33.313 -31.241,-30.861L-13.901,11.8C-11.534,17.625 -5.923,21.155 -0,21.155M79.643,-50.135C72.117,-53.599 63.208,-50.307 59.745,-42.781L-12.64,114.485C-16.104,122.01 -12.811,130.919 -5.286,134.383C-3.254,135.318 -1.123,135.76 0.976,135.76C6.652,135.76 12.083,132.522 14.612,127.028L86.997,-30.238C90.46,-37.763 87.168,-46.671 79.643,-50.135M388.005,34.95C384.796,40.999 380.307,45.72 374.534,49.109C368.76,52.502 362.115,54.195 354.602,54.195C352.916,54.195 351.276,54.095 349.672,53.916L380.319,-15.524C383.296,-12.831 385.814,-9.662 387.867,-6.012C391.167,-0.144 392.816,6.634 392.816,14.332C392.816,22.03 391.21,28.903 388.005,34.95M321.475,34.95C318.266,28.903 316.664,22.03 316.664,14.332C316.664,6.634 318.266,-0.144 321.475,-6.012C324.679,-11.876 329.172,-16.502 334.945,-19.895C340.719,-23.285 347.27,-24.981 354.602,-24.981C356.562,-24.981 358.456,-24.86 360.291,-24.629L329.49,45.158C326.265,42.328 323.585,38.933 321.475,34.95M389.792,-45.051C379.345,-51.098 367.613,-54.123 354.602,-54.123C341.771,-54.123 330.134,-51.052 319.688,-44.913C309.241,-38.77 300.946,-30.57 294.808,-20.308C288.665,-10.041 285.598,1.505 285.598,14.332C285.598,27.163 288.665,38.8 294.808,49.246C300.946,59.694 309.241,67.988 319.688,74.126C330.134,80.269 341.771,83.336 354.602,83.336C367.613,83.336 379.345,80.269 389.792,74.126C400.239,67.988 408.529,59.694 414.672,49.246C420.81,38.8 423.881,27.163 423.881,14.332C423.881,1.505 420.81,-10.089 414.672,-20.445C408.529,-30.798 400.239,-39.002 389.792,-45.051M543.181,-46.562C535.483,-51.601 526.686,-54.123 516.789,-54.123C507.073,-54.123 498.322,-51.876 490.535,-47.387C485.455,-44.458 481.112,-40.818 477.476,-36.49C477.476,-44.71 470.812,-51.374 462.592,-51.374L462.119,-51.374C453.899,-51.374 447.235,-44.71 447.235,-36.49L447.235,65.703C447.235,73.923 453.899,80.587 462.119,80.587L462.592,80.587C470.812,80.587 477.476,73.923 477.476,65.703L477.476,4.435C477.476,-1.428 478.756,-6.652 481.325,-11.236C483.889,-15.815 487.463,-19.388 492.046,-21.957C496.626,-24.522 501.849,-25.806 507.717,-25.806C516.514,-25.806 523.705,-22.963 529.298,-17.284C534.887,-11.6 537.683,-4.363 537.683,4.435L537.683,65.703C537.683,73.923 544.347,80.587 552.567,80.587L553.04,80.587C561.26,80.587 567.924,73.923 567.924,65.703L567.924,-2.163C567.924,-10.776 565.725,-19.071 561.326,-27.044C556.927,-35.016 550.879,-41.519 543.181,-46.562M266.336,42.837C261.158,37.658 253.049,37.144 247.074,41.377C243.614,43.828 239.846,45.947 235.769,47.735C227.612,51.308 217.668,53.095 205.941,53.095C196.409,53.095 187.701,51.446 179.824,48.147C171.941,44.848 165.116,40.131 159.342,33.988C153.569,27.85 149.123,20.565 146.009,12.133C142.89,3.704 141.335,-5.553 141.335,-15.635C141.335,-25.712 142.89,-34.969 146.009,-43.401C149.123,-51.829 153.569,-59.114 159.342,-65.257C165.116,-71.395 171.941,-76.116 179.824,-79.415C187.701,-82.715 196.409,-84.364 205.941,-84.364C216.753,-84.364 226.238,-82.62 234.395,-79.14C238.482,-77.394 242.259,-75.303 245.726,-72.866C251.699,-68.667 259.778,-69.197 264.941,-74.36L265.221,-74.639C271.708,-81.127 270.82,-91.915 263.328,-97.211C258.029,-100.957 252.371,-104.189 246.354,-106.907C234.988,-112.036 221.516,-114.605 205.941,-114.605C192.01,-114.605 179.136,-112.036 167.315,-106.907C155.493,-101.774 145.184,-94.717 136.387,-85.739C127.589,-76.757 120.806,-66.262 116.042,-54.261C111.274,-42.254 108.894,-29.38 108.894,-15.635C108.894,-1.888 111.274,10.99 116.042,22.991C120.806,34.998 127.589,45.535 136.387,54.608C145.184,63.68 155.493,70.738 167.315,75.776C179.136,80.815 192.01,83.336 205.941,83.336C221.336,83.336 234.988,80.768 246.904,75.639C253.274,72.896 259.2,69.601 264.68,65.755C272.217,60.467 273.147,49.648 266.636,43.137L266.336,42.837ZM-85.645,-34.741C-88.579,-29.883 -92.565,-26.124 -97.604,-23.47C-102.647,-20.81 -108.463,-19.483 -115.061,-19.483L-153.275,-19.483L-153.275,-84.364L-115.061,-84.364C-108.463,-84.364 -102.647,-83.032 -97.604,-80.378C-92.565,-77.719 -88.579,-73.96 -85.645,-69.106C-82.716,-64.248 -81.246,-58.521 -81.246,-51.924C-81.246,-45.325 -82.716,-39.595 -85.645,-34.741M-80.834,-104.433C-90.456,-109.382 -101.316,-111.856 -113.412,-111.856L-169.082,-111.856C-177.813,-111.856 -184.891,-104.778 -184.891,-96.047L-184.891,64.78C-184.891,73.51 -177.814,80.587 -169.083,80.587C-160.353,80.587 -153.275,73.51 -153.275,64.78L-153.275,8.009L-113.412,8.009C-101.316,8.009 -90.456,5.534 -80.834,0.586C-71.212,-4.363 -63.609,-11.326 -58.016,-20.308C-52.428,-29.286 -49.631,-39.827 -49.631,-51.924C-49.631,-64.02 -52.428,-74.557 -58.016,-83.539C-63.609,-92.517 -71.212,-99.484 -80.834,-104.433M868.692,1.686C865.393,-5.093 861.037,-10.638 855.633,-14.947C850.225,-19.251 844.267,-22.782 837.764,-25.531C831.256,-28.281 824.748,-30.755 818.245,-32.954C811.737,-35.154 805.779,-37.49 800.375,-39.965C794.967,-42.439 790.615,-45.463 787.317,-49.037C784.017,-52.611 782.368,-57.327 782.368,-63.195C782.368,-70.158 785.07,-75.566 790.478,-79.415C795.882,-83.264 803.352,-85.188 812.884,-85.188C820.582,-85.188 827.407,-83.677 833.365,-80.652C835.882,-79.374 838.359,-77.809 840.795,-75.957C846.927,-71.296 855.515,-71.737 860.962,-77.183C867.639,-83.86 866.665,-94.888 858.999,-100.402C855.535,-102.893 851.756,-105.153 847.661,-107.182C837.67,-112.131 826.355,-114.605 813.709,-114.605C801.977,-114.605 791.346,-112.496 781.818,-108.282C772.286,-104.063 764.726,-97.972 759.137,-90C753.545,-82.027 750.752,-72.358 750.752,-60.996C750.752,-51.098 752.402,-42.941 755.701,-36.528C759,-30.11 763.351,-24.887 768.759,-20.858C774.163,-16.824 780.121,-13.478 786.629,-10.823C793.132,-8.164 799.64,-5.78 806.148,-3.676C812.652,-1.566 818.61,0.818 824.018,3.473C829.422,6.132 833.777,9.478 837.077,13.507C840.191,17.315 841.836,22.184 842.01,28.113C842.219,35.238 839.313,42.155 833.662,46.501C827.234,51.447 818.38,53.92 807.11,53.92C795.744,53.92 786.397,51.768 779.069,47.459C775.655,45.455 772.459,43.082 769.482,40.341C763.584,34.91 754.454,35.098 748.784,40.767C742.762,46.789 742.993,56.603 749.252,62.378C754.852,67.544 760.851,71.78 767.247,75.089C777.875,80.587 790.796,83.336 806.011,83.336C826.72,83.336 843.168,78.298 855.359,68.216C867.545,58.138 873.641,44.483 873.641,27.253C873.641,16.99 871.991,8.468 868.692,1.686M729.389,65.604L729.389,66.704C729.389,74.371 723.173,80.587 715.505,80.587L615.711,80.587C606.98,80.587 599.902,73.509 599.902,64.779L599.902,-96.047C599.902,-104.778 606.98,-111.856 615.711,-111.856L714.131,-111.856C721.798,-111.856 728.014,-105.64 728.014,-97.972L728.014,-96.873C728.014,-89.205 721.798,-82.989 714.131,-82.989L631.518,-82.989L631.518,-31.58L693.158,-31.58C700.826,-31.58 707.042,-25.364 707.042,-17.696C707.042,-10.029 700.826,-3.813 693.158,-3.813L631.518,-3.813L631.518,51.721L715.505,51.721C723.173,51.721 729.389,57.937 729.389,65.604" style="fill:white;fill-rule:nonzero;"/>
                </g>
            </g>
        </g>
    </g>
</svg>
