<?xml version="1.0" encoding="UTF-8" standalone="no"?>
<!DOCTYPE svg PUBLIC "-//W3C//DTD SVG 1.1//EN" "http://www.w3.org/Graphics/SVG/1.1/DTD/svg11.dtd">
<svg width="100%" height="100%" viewBox="0 0 461 674" version="1.1" xmlns="http://www.w3.org/2000/svg" xmlns:xlink="http://www.w3.org/1999/xlink" xml:space="preserve" xmlns:serif="http://www.serif.com/" style="fill-rule:evenodd;clip-rule:evenodd;stroke-linejoin:round;stroke-miterlimit:2;">
    <g transform="matrix(1,0,0,1,-5774,-1821)">
        <g id="logo-vertical-alt-color-dark" transform="matrix(1.07438,0,0,1.089102,-430.290583,926.719926)">
            <rect x="5774.763" y="821.576" width="428.74" height="618.15" style="fill:none;"/>
            <g id="logo-vertical-alt-color-light" transform="matrix(0.930769,0,0,0.918188,5495.601342,398.447703)">
                <g id="symbol" transform="matrix(4.001324,0,0,4.001324,-8851.953431,-1510.863613)">
                    <g transform="matrix(4.166667,0,0,4.166667,661,476)">
                        <path d="M417.901,12.086C417.901,14.26 417.037,16.291 415.514,17.804C417.037,19.317 417.901,21.348 417.901,23.522C417.901,27.97 414.285,31.585 409.837,31.585C407.664,31.585 405.633,30.722 404.119,29.199C402.606,30.722 400.575,31.585 398.402,31.585C393.953,31.585 390.338,27.97 390.338,23.522C390.338,21.348 391.201,19.317 392.725,17.804C391.201,16.291 390.338,14.26 390.338,12.086C390.338,7.638 393.953,4.022 398.402,4.022C400.575,4.022 402.606,4.886 404.119,6.409C405.633,4.886 407.664,4.022 409.837,4.022C414.285,4.022 417.901,7.638 417.901,12.086ZM410.091,15.417C410.01,15.204 410.02,14.981 410.111,14.778C410.203,14.574 410.375,14.422 410.589,14.351C411.563,14.026 412.213,13.112 412.213,12.086C412.213,10.766 411.147,9.7 409.827,9.7C408.801,9.7 407.887,10.35 407.562,11.325C407.491,11.538 407.339,11.71 407.136,11.802C407.024,11.853 406.902,11.873 406.79,11.873C406.689,11.873 406.587,11.853 406.486,11.812C405.724,11.507 404.922,11.355 404.099,11.355C403.276,11.355 402.474,11.507 401.712,11.812C401.611,11.853 401.509,11.873 401.408,11.873C401.286,11.873 401.174,11.853 401.062,11.802C400.859,11.71 400.707,11.538 400.636,11.325C400.311,10.35 399.397,9.7 398.371,9.7C397.051,9.7 395.985,10.766 395.985,12.086C395.985,13.112 396.634,14.026 397.609,14.351C397.823,14.422 397.995,14.574 398.087,14.778C398.188,14.981 398.188,15.214 398.107,15.417C397.802,16.179 397.65,16.981 397.65,17.804C397.65,18.626 397.802,19.429 398.107,20.19C398.188,20.394 398.178,20.627 398.087,20.83C397.995,21.033 397.823,21.186 397.609,21.257C396.634,21.582 395.985,22.496 395.985,23.522C395.985,24.842 397.051,25.908 398.371,25.908C399.397,25.908 400.311,25.258 400.636,24.283C400.707,24.07 400.859,23.897 401.062,23.806C401.174,23.755 401.296,23.735 401.408,23.735C401.509,23.735 401.611,23.755 401.712,23.796C402.474,24.1 403.276,24.253 404.099,24.253C404.922,24.253 405.724,24.1 406.486,23.796C406.587,23.755 406.689,23.735 406.79,23.735C406.912,23.735 407.024,23.755 407.136,23.806C407.339,23.897 407.491,24.07 407.562,24.283C407.887,25.258 408.801,25.908 409.827,25.908C411.147,25.908 412.213,24.842 412.213,23.522C412.213,22.496 411.563,21.582 410.589,21.257C410.375,21.186 410.203,21.033 410.111,20.83C410.01,20.627 410.01,20.394 410.091,20.19C410.396,19.429 410.548,18.626 410.548,17.804C410.548,16.981 410.396,16.179 410.091,15.417ZM404.109,13.792C406.323,13.792 408.121,15.59 408.121,17.803C408.121,20.018 406.323,21.815 404.109,21.815C401.895,21.815 400.098,20.018 400.098,17.803C400.098,15.59 401.895,13.792 404.109,13.792ZM404.109,14.605C402.342,14.605 400.91,16.036 400.91,17.803C400.91,19.571 402.342,21.003 404.109,21.003C405.876,21.003 407.308,19.571 407.308,17.803C407.308,16.036 405.876,14.605 404.109,14.605Z" style="fill:white;"/>
                    </g>
                    <g transform="matrix(4.166667,0,0,4.166667,661,476)">
                        <path d="M401.428,24.537C402.261,24.872 403.165,25.055 404.129,25.065C404.373,25.065 404.607,25.045 404.851,25.025L404.505,26.111C404.475,26.111 404.444,26.111 404.424,26.121L401.164,27.167L400.453,25.969C400.9,25.593 401.235,25.106 401.428,24.537ZM398.391,26.72C398.96,26.72 399.488,26.568 399.955,26.324L400.605,27.421L398.269,28.741L393.902,25.593L393.984,21.073L395.751,17.367L396.868,17.356C396.868,17.499 396.858,17.641 396.858,17.793C396.858,18.748 397.04,19.652 397.376,20.484C396.106,20.911 395.192,22.109 395.192,23.521C395.192,25.288 396.624,26.72 398.391,26.72ZM406.801,24.537C407.146,25.573 408.009,26.375 409.086,26.629L407.369,27.665L405.054,26.365L405.511,24.923C405.958,24.832 406.384,24.7 406.801,24.537ZM396.929,16.747L395.71,16.747L393.12,13.558L395.212,11.72C395.202,11.831 395.192,11.953 395.192,12.075C395.192,13.487 396.106,14.685 397.375,15.112C397.162,15.63 397.01,16.178 396.929,16.747ZM416.997,22.374C417.058,22.75 417.088,23.136 417.088,23.512C417.088,25.746 416.062,27.757 414.468,29.087L415.189,25.858C415.219,25.756 415.199,25.654 415.138,25.573C415.077,25.502 414.996,25.461 414.905,25.461L414.874,25.461L412.102,25.776C412.335,25.543 412.528,25.268 412.68,24.974L415.646,22.374L416.997,22.374ZM416.083,15.752C415.616,16.544 415.006,17.234 414.285,17.793C415.544,18.778 416.469,20.169 416.865,21.764L415.666,21.764L413.016,18.494L414.671,15.02L416.083,15.752ZM414.844,14.422L414.925,10.054L416.509,9.272C416.875,10.136 417.078,11.09 417.078,12.086C417.078,13.203 416.824,14.269 416.367,15.214L414.844,14.422ZM398.391,4.824C398.635,4.824 398.869,4.834 399.092,4.845L400.443,7.455L398.066,8.887C397.792,8.917 397.538,8.978 397.284,9.069L393.75,9.476L394.603,5.891C395.71,5.22 397.01,4.824 398.391,4.824ZM397.894,7.445C398.269,7.13 398.31,6.582 398.005,6.206C397.701,5.83 397.142,5.789 396.766,6.094C396.391,6.399 396.35,6.957 396.655,7.333C396.959,7.709 397.518,7.76 397.894,7.445ZM416.256,8.725L414.661,9.517L410.243,6.328L409.807,4.835L409.827,4.835C412.62,4.835 415.037,6.409 416.256,8.725ZM404.109,7.628C405.318,6.084 407.125,5.038 409.187,4.865L409.624,6.368L407.085,7.8L403.754,8.867L401.083,7.364L399.844,4.977C401.56,5.322 403.063,6.287 404.109,7.628ZM404.109,21.003C402.342,21.003 400.91,19.571 400.91,17.804C400.91,16.037 402.342,14.605 404.109,14.605C405.876,14.605 407.308,16.037 407.308,17.804C407.308,19.571 405.876,21.003 404.109,21.003Z" style="fill:rgb(255,130,0);"/>
                    </g>
                    <g transform="matrix(4.166667,0,0,4.166667,661,476)">
                        <path d="M392.136,19.855C392.603,19.063 393.212,18.362 393.933,17.814C392.674,16.829 391.75,15.437 391.354,13.843L392.552,13.843L395.203,17.113L393.547,20.586L392.136,19.855ZM393.374,21.186L393.293,25.553L391.708,26.335C391.343,25.471 391.14,24.517 391.14,23.522C391.14,22.404 391.394,21.338 391.851,20.394L393.374,21.186ZM410.934,26.527L414.478,26.131L413.625,29.716C412.518,30.386 411.218,30.782 409.837,30.782C409.593,30.782 409.36,30.772 409.126,30.752L407.775,28.142L410.152,26.71C410.426,26.679 410.68,26.618 410.934,26.527ZM410.325,28.163C409.959,28.478 409.908,29.026 410.213,29.402C410.518,29.777 411.076,29.818 411.452,29.514C411.828,29.209 411.868,28.65 411.564,28.275C411.259,27.899 410.7,27.848 410.325,28.163ZM393.567,26.091L397.985,29.28L398.422,30.773L398.401,30.773C395.608,30.773 393.191,29.199 391.973,26.883L393.567,26.091ZM404.475,26.74L407.135,28.233L408.374,30.62C406.658,30.274 405.155,29.31 404.109,27.969C402.911,29.513 401.093,30.559 399.041,30.742L398.604,29.239L401.143,27.807L404.475,26.74ZM392.582,13.223L392.582,13.233L391.231,13.233C391.17,12.857 391.14,12.471 391.14,12.085C391.14,9.851 392.165,7.84 393.76,6.51L393.039,9.739C393.008,9.841 393.029,9.942 393.09,10.024C393.151,10.095 393.232,10.135 393.323,10.135L393.354,10.135L396.126,9.821C395.893,10.054 395.7,10.328 395.547,10.623L392.582,13.223Z" style="fill:rgb(249,66,58);"/>
                    </g>
                    <g transform="matrix(4.166667,0,0,4.166667,661,476)">
                        <path d="M403.814,9.486L407.064,8.43L407.775,9.628C407.328,10.004 406.993,10.491 406.8,11.06C405.967,10.725 405.053,10.542 404.109,10.542C403.865,10.542 403.631,10.562 403.388,10.583L403.733,9.496C403.763,9.496 403.794,9.496 403.814,9.486ZM413.025,12.085C413.025,10.318 411.593,8.886 409.816,8.876C409.247,8.876 408.719,9.028 408.262,9.282L407.612,8.185L409.948,6.865L414.315,10.014L414.234,14.533L412.467,18.24L411.35,18.25C411.35,18.108 411.36,17.966 411.36,17.813C411.36,16.858 411.177,15.955 410.842,15.122C412.111,14.695 413.025,13.497 413.025,12.085ZM399.143,8.968L400.859,7.932L403.174,9.232L402.717,10.674C402.271,10.765 401.844,10.897 401.428,11.06C401.082,10.024 400.219,9.221 399.143,8.968ZM415.097,22.038L412.995,23.887C413.005,23.775 413.016,23.653 413.016,23.531C413.016,22.12 412.102,20.921 410.832,20.495C411.045,19.977 411.198,19.429 411.279,18.86L412.508,18.85L415.097,22.038Z" style="fill:rgb(255,199,44);"/>
                    </g>
                    <g transform="matrix(4.166667,0,0,4.166667,661,476)">
                        <path d="M397.457,9.029C397.477,9.019 397.508,9.019 397.528,9.009C397.498,9.009 397.477,9.019 397.457,9.029Z" style="fill:rgb(254,206,23);fill-rule:nonzero;"/>
                    </g>
                </g>
                <g id="nomenclator" transform="matrix(4.166667,0,0,4.166667,-258.303673,-841)">
                    <path d="M150.744,468.954C151.049,469.116 151.302,469.33 151.475,469.594C151.729,469.939 151.861,470.345 151.861,470.802C151.861,471.178 151.77,471.523 151.587,471.838C151.404,472.153 151.13,472.407 150.774,472.6C150.419,472.793 149.982,472.884 149.454,472.884L146.58,472.884L146.58,465.552L149.363,465.552C149.86,465.552 150.277,465.643 150.602,465.826C150.927,466.009 151.17,466.242 151.333,466.527C151.495,466.811 151.577,467.126 151.577,467.451C151.577,467.837 151.475,468.172 151.262,468.466C151.13,468.649 150.957,468.812 150.744,468.954ZM150.378,471.493C150.581,471.259 150.683,470.995 150.673,470.691C150.673,470.487 150.632,470.295 150.541,470.122C150.449,469.949 150.317,469.807 150.145,469.705C149.972,469.604 149.759,469.553 149.515,469.553L147.789,469.553L147.789,471.838L149.515,471.838C149.891,471.838 150.175,471.726 150.378,471.493ZM147.789,466.598L147.789,468.507L149.342,468.507C149.657,468.507 149.901,468.426 150.094,468.263C150.287,468.101 150.378,467.867 150.378,467.552C150.378,467.238 150.287,467.004 150.094,466.842C149.911,466.679 149.657,466.598 149.342,466.598L147.789,466.598ZM155.466,465.552L156.299,465.552L159.295,472.884L157.995,472.884L157.437,471.473L154.288,471.473L153.73,472.884L152.45,472.884L155.466,465.552ZM154.705,470.416L157.03,470.416L155.873,467.491L154.705,470.416ZM164.109,469.512C163.825,469.654 163.49,469.736 163.124,469.776L165.693,472.894L164.18,472.894L161.672,469.786L161.357,469.786L161.357,472.894L160.148,472.894L160.148,465.562L162.89,465.562C163.358,465.562 163.764,465.653 164.109,465.836C164.454,466.019 164.729,466.272 164.922,466.587C165.115,466.912 165.206,467.268 165.206,467.674C165.206,468.1 165.115,468.466 164.922,468.781C164.729,469.096 164.454,469.34 164.109,469.512ZM161.357,468.771L162.84,468.771C163.205,468.771 163.5,468.679 163.703,468.486C163.906,468.293 164.008,468.029 164.008,467.684C164.008,467.379 163.906,467.126 163.703,466.912C163.5,466.699 163.205,466.597 162.84,466.597L161.357,466.597L161.357,468.771ZM170.862,471.625C171.177,471.493 171.431,471.31 171.655,471.076L172.467,471.889C172.142,472.224 171.746,472.498 171.289,472.691C170.832,472.884 170.314,472.986 169.725,472.986C169.197,472.986 168.699,472.894 168.252,472.701C167.806,472.508 167.409,472.244 167.074,471.899C166.739,471.554 166.485,471.148 166.302,470.691C166.12,470.234 166.028,469.746 166.028,469.218C166.028,468.69 166.12,468.202 166.302,467.745C166.485,467.288 166.739,466.892 167.074,466.547C167.409,466.212 167.806,465.938 168.252,465.745C168.699,465.552 169.197,465.45 169.725,465.45C170.324,465.45 170.832,465.552 171.269,465.745C171.695,465.938 172.081,466.202 172.416,466.537L171.604,467.349C171.391,467.106 171.126,466.923 170.812,466.791C170.497,466.659 170.141,466.588 169.725,466.588C169.359,466.588 169.034,466.659 168.73,466.781C168.425,466.902 168.171,467.085 167.948,467.319C167.724,467.552 167.562,467.827 167.44,468.152C167.318,468.466 167.257,468.822 167.257,469.208C167.257,469.594 167.318,469.939 167.44,470.264C167.562,470.589 167.724,470.863 167.948,471.097C168.171,471.33 168.425,471.513 168.73,471.635C169.034,471.767 169.359,471.828 169.725,471.828C170.172,471.828 170.548,471.757 170.862,471.625ZM174.651,469.665L174.651,471.777L178.378,471.777L178.378,472.884L173.442,472.884L173.442,465.552L178.327,465.552L178.327,466.649L174.651,466.649L174.651,468.609L178.023,468.609L178.023,469.665L174.651,469.665ZM180.724,465.552L180.724,471.777L184.177,471.777L184.177,472.884L179.516,472.884L179.516,465.552L180.724,465.552ZM190.605,466.537C190.951,466.882 191.215,467.288 191.408,467.745C191.601,468.202 191.692,468.69 191.692,469.218C191.692,469.746 191.601,470.234 191.408,470.691C191.215,471.148 190.951,471.544 190.615,471.889C190.27,472.224 189.874,472.498 189.427,472.691C188.97,472.884 188.493,472.986 187.975,472.986C187.457,472.986 186.97,472.884 186.513,472.691C186.056,472.498 185.659,472.224 185.314,471.879C184.969,471.533 184.705,471.127 184.512,470.67C184.319,470.213 184.227,469.716 184.227,469.198C184.227,468.68 184.319,468.192 184.512,467.735C184.705,467.278 184.969,466.882 185.304,466.537C185.649,466.192 186.045,465.927 186.492,465.735C186.949,465.542 187.427,465.45 187.955,465.45C188.483,465.45 188.97,465.542 189.417,465.735C189.864,465.927 190.26,466.192 190.605,466.537ZM190.138,470.569C190.351,470.173 190.453,469.726 190.443,469.208C190.443,468.822 190.382,468.466 190.26,468.152C190.138,467.837 189.965,467.563 189.742,467.329C189.519,467.095 189.255,466.913 188.95,466.791C188.655,466.659 188.31,466.598 187.944,466.598C187.457,466.598 187.03,466.699 186.655,466.923C186.279,467.136 185.984,467.451 185.771,467.837C185.558,468.223 185.456,468.68 185.456,469.198C185.456,469.584 185.517,469.939 185.639,470.264C185.761,470.589 185.934,470.863 186.157,471.097C186.38,471.33 186.645,471.503 186.949,471.635C187.254,471.767 187.589,471.828 187.955,471.828C188.442,471.828 188.879,471.716 189.255,471.493C189.63,471.269 189.925,470.965 190.138,470.569ZM197.522,470.609L197.522,465.552L198.73,465.552L198.73,472.884L197.887,472.884L194.018,467.827L194.018,472.884L192.809,472.884L192.809,465.552L193.652,465.552L197.522,470.609ZM202.691,465.552L203.524,465.552L206.52,472.884L205.22,472.884L204.661,471.473L201.513,471.473L200.954,472.884L199.675,472.884L202.691,465.552ZM201.929,470.416L204.255,470.416L203.097,467.491L201.929,470.416ZM209.465,472.049L212.27,469.111C212.47,468.901 212.632,468.711 212.757,468.542C212.881,468.373 212.972,468.214 213.027,468.064C213.083,467.913 213.111,467.76 213.111,467.602C213.111,467.291 213.01,467.047 212.808,466.87C212.607,466.694 212.348,466.605 212.032,466.605C211.706,466.605 211.417,466.69 211.165,466.858C210.912,467.027 210.677,467.296 210.459,467.663L209.478,466.828C209.773,466.328 210.141,465.949 210.582,465.692C211.024,465.435 211.532,465.306 212.108,465.306C212.596,465.306 213.022,465.4 213.385,465.588C213.748,465.777 214.029,466.041 214.228,466.381C214.427,466.721 214.527,467.118 214.527,467.57C214.527,467.876 214.489,468.152 214.414,468.399C214.339,468.646 214.214,468.891 214.039,469.135C213.864,469.379 213.626,469.654 213.325,469.962L211.694,471.619L214.678,471.619L214.678,472.873L209.465,472.873L209.465,472.049ZM221.267,472.049L224.072,469.111C224.272,468.901 224.434,468.711 224.559,468.542C224.683,468.373 224.773,468.214 224.829,468.064C224.885,467.913 224.913,467.76 224.913,467.602C224.913,467.291 224.812,467.047 224.61,466.87C224.409,466.694 224.15,466.605 223.833,466.605C223.508,466.605 223.219,466.69 222.966,466.858C222.714,467.027 222.479,467.296 222.261,467.663L221.28,466.828C221.575,466.328 221.943,465.949 222.384,465.692C222.825,465.435 223.334,465.306 223.91,465.306C224.398,465.306 224.824,465.4 225.187,465.588C225.55,465.777 225.831,466.041 226.03,466.381C226.229,466.721 226.329,467.118 226.329,467.57C226.329,467.876 226.291,468.152 226.216,468.399C226.141,468.646 226.016,468.891 225.841,469.135C225.666,469.379 225.428,469.654 225.127,469.962L223.496,471.619L226.48,471.619L226.48,472.873L221.267,472.873L221.267,472.049ZM229.219,467.959C229.34,467.939 229.475,467.928 229.624,467.928C230.072,467.928 230.476,468.033 230.837,468.241C231.199,468.45 231.489,468.736 231.707,469.1C231.925,469.464 232.035,469.886 232.035,470.365C232.035,470.851 231.915,471.293 231.675,471.69C231.436,472.086 231.111,472.401 230.702,472.635C230.293,472.868 229.836,472.985 229.33,472.985C228.821,472.985 228.363,472.869 227.955,472.639C227.548,472.408 227.226,472.097 226.989,471.705C226.752,471.314 226.633,470.878 226.633,470.397C226.633,469.739 226.862,469.076 227.32,468.406L229.388,465.417L231.035,465.417L229.219,467.959ZM229.33,471.686C229.576,471.686 229.795,471.628 229.989,471.512C230.182,471.396 230.335,471.237 230.448,471.033C230.56,470.83 230.616,470.602 230.616,470.349C230.616,470.096 230.56,469.87 230.448,469.669C230.335,469.468 230.182,469.312 229.989,469.198C229.795,469.085 229.576,469.029 229.33,469.029C229.084,469.029 228.865,469.087 228.671,469.202C228.478,469.318 228.326,469.475 228.216,469.673C228.107,469.871 228.052,470.096 228.052,470.349C228.052,470.602 228.107,470.83 228.216,471.033C228.326,471.237 228.478,471.396 228.671,471.512C228.865,471.628 229.084,471.686 229.33,471.686ZM218.035,472.985C217.453,472.985 216.925,472.825 216.452,472.505C215.978,472.185 215.601,471.736 215.322,471.158C215.043,470.58 214.903,469.905 214.903,469.135C214.903,468.362 215.041,467.69 215.316,467.116C215.592,466.543 215.964,466.098 216.434,465.781C216.905,465.464 217.43,465.306 218.012,465.306C218.602,465.306 219.132,465.464 219.603,465.781C220.074,466.097 220.448,466.543 220.723,467.118C220.999,467.693 221.137,468.369 221.137,469.148C221.137,469.92 220.999,470.595 220.724,471.172C220.448,471.749 220.077,472.195 219.609,472.511C219.142,472.827 218.617,472.985 218.035,472.985ZM218.017,471.675C218.357,471.675 218.651,471.58 218.899,471.391C219.146,471.202 219.339,470.92 219.477,470.544C219.615,470.168 219.684,469.7 219.684,469.138C219.684,468.581 219.615,468.115 219.477,467.74C219.339,467.365 219.145,467.084 218.895,466.897C218.645,466.71 218.35,466.616 218.01,466.616C217.678,466.616 217.387,466.709 217.137,466.896C216.887,467.082 216.694,467.361 216.559,467.733C216.424,468.106 216.356,468.572 216.356,469.131C216.356,469.696 216.424,470.166 216.559,470.541C216.694,470.917 216.887,471.2 217.137,471.39C217.387,471.58 217.68,471.675 218.017,471.675Z" style="fill:white;"/>
                </g>
                <g transform="matrix(0.431706,0,0,0.431706,381.807823,1022.093801)">
                    <path d="M-0,21.155C1.88,21.155 3.793,20.799 5.643,20.047C11.422,17.698 14.94,12.156 14.995,6.284C15.067,4.292 14.74,2.286 13.996,0.394L-2.771,-42.244C-4.973,-47.844 -10.377,-51.526 -16.395,-51.526L-17.65,-51.526C-25.55,-51.526 -31.518,-45.45 -32.23,-38.324C-32.532,-35.872 -32.237,-33.313 -31.241,-30.861L-13.901,11.8C-11.534,17.625 -5.923,21.155 -0,21.155M79.643,-50.135C72.117,-53.599 63.208,-50.307 59.745,-42.781L-12.64,114.485C-16.104,122.01 -12.811,130.919 -5.286,134.383C-3.254,135.318 -1.123,135.76 0.976,135.76C6.652,135.76 12.083,132.522 14.612,127.028L86.997,-30.238C90.46,-37.763 87.168,-46.671 79.643,-50.135M388.005,34.95C384.796,40.999 380.307,45.72 374.534,49.109C368.76,52.502 362.115,54.195 354.602,54.195C352.916,54.195 351.276,54.095 349.672,53.916L380.319,-15.524C383.296,-12.831 385.814,-9.662 387.867,-6.012C391.167,-0.144 392.816,6.634 392.816,14.332C392.816,22.03 391.21,28.903 388.005,34.95M321.475,34.95C318.266,28.903 316.664,22.03 316.664,14.332C316.664,6.634 318.266,-0.144 321.475,-6.012C324.679,-11.876 329.172,-16.502 334.945,-19.895C340.719,-23.285 347.27,-24.981 354.602,-24.981C356.562,-24.981 358.456,-24.86 360.291,-24.629L329.49,45.158C326.265,42.328 323.585,38.933 321.475,34.95M389.792,-45.051C379.345,-51.098 367.613,-54.123 354.602,-54.123C341.771,-54.123 330.134,-51.052 319.688,-44.913C309.241,-38.77 300.946,-30.57 294.808,-20.308C288.665,-10.041 285.598,1.505 285.598,14.332C285.598,27.163 288.665,38.8 294.808,49.246C300.946,59.694 309.241,67.988 319.688,74.126C330.134,80.269 341.771,83.336 354.602,83.336C367.613,83.336 379.345,80.269 389.792,74.126C400.239,67.988 408.529,59.694 414.672,49.246C420.81,38.8 423.881,27.163 423.881,14.332C423.881,1.505 420.81,-10.089 414.672,-20.445C408.529,-30.798 400.239,-39.002 389.792,-45.051M543.181,-46.562C535.483,-51.601 526.686,-54.123 516.789,-54.123C507.073,-54.123 498.322,-51.876 490.535,-47.387C485.455,-44.458 481.112,-40.818 477.476,-36.49C477.476,-44.71 470.812,-51.374 462.592,-51.374L462.119,-51.374C453.899,-51.374 447.235,-44.71 447.235,-36.49L447.235,65.703C447.235,73.923 453.899,80.587 462.119,80.587L462.592,80.587C470.812,80.587 477.476,73.923 477.476,65.703L477.476,4.435C477.476,-1.428 478.756,-6.652 481.325,-11.236C483.889,-15.815 487.463,-19.388 492.046,-21.957C496.626,-24.522 501.849,-25.806 507.717,-25.806C516.514,-25.806 523.705,-22.963 529.298,-17.284C534.887,-11.6 537.683,-4.363 537.683,4.435L537.683,65.703C537.683,73.923 544.347,80.587 552.567,80.587L553.04,80.587C561.26,80.587 567.924,73.923 567.924,65.703L567.924,-2.163C567.924,-10.776 565.725,-19.071 561.326,-27.044C556.927,-35.016 550.879,-41.519 543.181,-46.562M266.336,42.837C261.158,37.658 253.049,37.144 247.074,41.377C243.614,43.828 239.846,45.947 235.769,47.735C227.612,51.308 217.668,53.095 205.941,53.095C196.409,53.095 187.701,51.446 179.824,48.147C171.941,44.848 165.116,40.131 159.342,33.988C153.569,27.85 149.123,20.565 146.009,12.133C142.89,3.704 141.335,-5.553 141.335,-15.635C141.335,-25.712 142.89,-34.969 146.009,-43.401C149.123,-51.829 153.569,-59.114 159.342,-65.257C165.116,-71.395 171.941,-76.116 179.824,-79.415C187.701,-82.715 196.409,-84.364 205.941,-84.364C216.753,-84.364 226.238,-82.62 234.395,-79.14C238.482,-77.394 242.259,-75.303 245.726,-72.866C251.699,-68.667 259.778,-69.197 264.941,-74.36L265.221,-74.639C271.708,-81.127 270.82,-91.915 263.328,-97.211C258.029,-100.957 252.371,-104.189 246.354,-106.907C234.988,-112.036 221.516,-114.605 205.941,-114.605C192.01,-114.605 179.136,-112.036 167.315,-106.907C155.493,-101.774 145.184,-94.717 136.387,-85.739C127.589,-76.757 120.806,-66.262 116.042,-54.261C111.274,-42.254 108.894,-29.38 108.894,-15.635C108.894,-1.888 111.274,10.99 116.042,22.991C120.806,34.998 127.589,45.535 136.387,54.608C145.184,63.68 155.493,70.738 167.315,75.776C179.136,80.815 192.01,83.336 205.941,83.336C221.336,83.336 234.988,80.768 246.904,75.639C253.274,72.896 259.2,69.601 264.68,65.755C272.217,60.467 273.147,49.648 266.636,43.137L266.336,42.837ZM-85.645,-34.741C-88.579,-29.883 -92.565,-26.124 -97.604,-23.47C-102.647,-20.81 -108.463,-19.483 -115.061,-19.483L-153.275,-19.483L-153.275,-84.364L-115.061,-84.364C-108.463,-84.364 -102.647,-83.032 -97.604,-80.378C-92.565,-77.719 -88.579,-73.96 -85.645,-69.106C-82.716,-64.248 -81.246,-58.521 -81.246,-51.924C-81.246,-45.325 -82.716,-39.595 -85.645,-34.741M-80.834,-104.433C-90.456,-109.382 -101.316,-111.856 -113.412,-111.856L-169.082,-111.856C-177.813,-111.856 -184.891,-104.778 -184.891,-96.047L-184.891,64.78C-184.891,73.51 -177.814,80.587 -169.083,80.587C-160.353,80.587 -153.275,73.51 -153.275,64.78L-153.275,8.009L-113.412,8.009C-101.316,8.009 -90.456,5.534 -80.834,0.586C-71.212,-4.363 -63.609,-11.326 -58.016,-20.308C-52.428,-29.286 -49.631,-39.827 -49.631,-51.924C-49.631,-64.02 -52.428,-74.557 -58.016,-83.539C-63.609,-92.517 -71.212,-99.484 -80.834,-104.433M868.692,1.686C865.393,-5.093 861.037,-10.638 855.633,-14.947C850.225,-19.251 844.267,-22.782 837.764,-25.531C831.256,-28.281 824.748,-30.755 818.245,-32.954C811.737,-35.154 805.779,-37.49 800.375,-39.965C794.967,-42.439 790.615,-45.463 787.317,-49.037C784.017,-52.611 782.368,-57.327 782.368,-63.195C782.368,-70.158 785.07,-75.566 790.478,-79.415C795.882,-83.264 803.352,-85.188 812.884,-85.188C820.582,-85.188 827.407,-83.677 833.365,-80.652C835.882,-79.374 838.359,-77.809 840.795,-75.957C846.927,-71.296 855.515,-71.737 860.962,-77.183C867.639,-83.86 866.665,-94.888 858.999,-100.402C855.535,-102.893 851.756,-105.153 847.661,-107.182C837.67,-112.131 826.355,-114.605 813.709,-114.605C801.977,-114.605 791.346,-112.496 781.818,-108.282C772.286,-104.063 764.726,-97.972 759.137,-90C753.545,-82.027 750.752,-72.358 750.752,-60.996C750.752,-51.098 752.402,-42.941 755.701,-36.528C759,-30.11 763.351,-24.887 768.759,-20.858C774.163,-16.824 780.121,-13.478 786.629,-10.823C793.132,-8.164 799.64,-5.78 806.148,-3.676C812.652,-1.566 818.61,0.818 824.018,3.473C829.422,6.132 833.777,9.478 837.077,13.507C840.191,17.315 841.836,22.184 842.01,28.113C842.219,35.238 839.313,42.155 833.662,46.501C827.234,51.447 818.38,53.92 807.11,53.92C795.744,53.92 786.397,51.768 779.069,47.459C775.655,45.455 772.459,43.082 769.482,40.341C763.584,34.91 754.454,35.098 748.784,40.767C742.762,46.789 742.993,56.603 749.252,62.378C754.852,67.544 760.851,71.78 767.247,75.089C777.875,80.587 790.796,83.336 806.011,83.336C826.72,83.336 843.168,78.298 855.359,68.216C867.545,58.138 873.641,44.483 873.641,27.253C873.641,16.99 871.991,8.468 868.692,1.686M729.389,65.604L729.389,66.704C729.389,74.371 723.173,80.587 715.505,80.587L615.711,80.587C606.98,80.587 599.902,73.509 599.902,64.779L599.902,-96.047C599.902,-104.778 606.98,-111.856 615.711,-111.856L714.131,-111.856C721.798,-111.856 728.014,-105.64 728.014,-97.972L728.014,-96.873C728.014,-89.205 721.798,-82.989 714.131,-82.989L631.518,-82.989L631.518,-31.58L693.158,-31.58C700.826,-31.58 707.042,-25.364 707.042,-17.696C707.042,-10.029 700.826,-3.813 693.158,-3.813L631.518,-3.813L631.518,51.721L715.505,51.721C723.173,51.721 729.389,57.937 729.389,65.604" style="fill:white;fill-rule:nonzero;"/>
                </g>
            </g>
        </g>
    </g>
</svg>
