<?xml version="1.0" encoding="UTF-8" standalone="no"?>
<!DOCTYPE svg PUBLIC "-//W3C//DTD SVG 1.1//EN" "http://www.w3.org/Graphics/SVG/1.1/DTD/svg11.dtd">
<svg width="100%" height="100%" viewBox="0 0 461 344" version="1.1" xmlns="http://www.w3.org/2000/svg" xmlns:xlink="http://www.w3.org/1999/xlink" xml:space="preserve" xmlns:serif="http://www.serif.com/" style="fill-rule:evenodd;clip-rule:evenodd;stroke-linejoin:round;stroke-miterlimit:2;">
    <g transform="matrix(1,0,0,1,-615,-1327)">
        <g id="logo-vertical-yellow-light" transform="matrix(1.088017,0,0,1.078289,-54.515087,1327.772579)">
            <rect x="615.354" y="-0" width="423.367" height="317.651" style="fill:none;"/>
            <g id="logo-vertical-black-light" transform="matrix(0.919104,0,0,0.927395,-833.14556,-819.460764)">
                <g id="nomenclator" transform="matrix(4.166667,0,0,4.166667,-1048.608645,496)">
                    <path d="M655.18,170.272C655.495,170.435 655.739,170.648 655.912,170.912C656.166,171.257 656.298,171.664 656.298,172.121C656.298,172.496 656.206,172.842 656.023,173.157C655.841,173.471 655.566,173.725 655.211,173.918C654.855,174.111 654.419,174.203 653.891,174.203L651.017,174.203L651.017,166.87L653.799,166.87C654.297,166.87 654.713,166.962 655.038,167.144C655.363,167.327 655.607,167.561 655.769,167.845C655.932,168.129 656.013,168.444 656.013,168.769C656.013,169.155 655.912,169.49 655.698,169.785C655.566,169.968 655.394,170.13 655.18,170.272ZM654.815,172.801C655.018,172.578 655.12,172.314 655.109,171.999C655.109,171.796 655.069,171.603 654.977,171.43C654.886,171.257 654.754,171.115 654.581,171.014C654.409,170.912 654.195,170.861 653.952,170.861L652.225,170.861L652.225,173.146L653.952,173.146C654.327,173.146 654.612,173.035 654.815,172.801ZM652.235,167.916L652.235,169.825L653.789,169.825C654.104,169.825 654.348,169.744 654.541,169.582C654.734,169.419 654.825,169.186 654.825,168.871C654.825,168.556 654.734,168.322 654.541,168.16C654.358,167.997 654.104,167.916 653.789,167.916L652.235,167.916ZM659.903,166.87L660.736,166.87L663.732,174.203L662.432,174.203L661.873,172.791L658.725,172.791L658.166,174.203L656.887,174.203L659.903,166.87ZM659.152,171.735L661.477,171.735L660.319,168.81L659.152,171.735ZM668.555,170.83C668.261,170.973 667.936,171.054 667.57,171.095L670.14,174.212L668.627,174.212L666.118,171.105L665.803,171.105L665.803,174.212L664.595,174.212L664.595,166.88L667.337,166.88C667.804,166.88 668.21,166.971 668.555,167.154C668.901,167.337 669.175,167.591 669.368,167.906C669.561,168.231 669.652,168.586 669.652,168.992C669.652,169.419 669.561,169.784 669.368,170.099C669.175,170.414 668.901,170.658 668.555,170.83ZM665.803,170.089L667.286,170.089C667.652,170.089 667.946,169.998 668.149,169.805C668.352,169.612 668.454,169.348 668.454,169.002C668.454,168.698 668.352,168.444 668.149,168.231C667.946,168.017 667.652,167.916 667.286,167.916L665.803,167.916L665.803,170.089ZM675.309,172.943C675.613,172.811 675.877,172.628 676.111,172.395L676.924,173.207C676.588,173.542 676.192,173.817 675.735,174.01C675.278,174.203 674.76,174.304 674.171,174.304C673.643,174.304 673.146,174.213 672.699,174.02C672.252,173.827 671.856,173.563 671.521,173.217C671.185,172.872 670.932,172.466 670.749,172.009C670.566,171.552 670.475,171.064 670.475,170.536C670.475,170.008 670.566,169.521 670.749,169.064C670.932,168.607 671.185,168.211 671.521,167.865C671.856,167.53 672.252,167.256 672.699,167.063C673.146,166.87 673.643,166.769 674.171,166.769C674.77,166.769 675.278,166.87 675.715,167.063C676.141,167.256 676.527,167.52 676.863,167.855L676.05,168.668C675.837,168.424 675.573,168.241 675.258,168.109C674.943,167.977 674.588,167.906 674.171,167.906C673.806,167.906 673.481,167.977 673.176,168.099C672.871,168.221 672.617,168.404 672.394,168.637C672.171,168.871 672.008,169.145 671.886,169.47C671.764,169.785 671.703,170.14 671.703,170.526C671.703,170.912 671.764,171.257 671.886,171.582C672.008,171.907 672.171,172.182 672.394,172.415C672.617,172.649 672.871,172.832 673.176,172.953C673.481,173.085 673.806,173.146 674.171,173.146C674.618,173.146 674.994,173.075 675.309,172.943ZM679.087,170.983L679.087,173.096L682.814,173.096L682.814,174.203L677.889,174.203L677.889,166.87L682.763,166.87L682.763,167.967L679.087,167.967L679.087,169.927L682.459,169.927L682.459,170.983L679.087,170.983ZM685.16,166.87L685.16,173.096L688.613,173.096L688.613,174.203L683.962,174.203L683.962,166.87L685.16,166.87ZM695.052,167.855C695.387,168.201 695.651,168.607 695.854,169.064C696.047,169.521 696.138,170.008 696.138,170.536C696.138,171.064 696.047,171.552 695.854,172.009C695.661,172.466 695.397,172.862 695.062,173.207C694.717,173.542 694.331,173.817 693.874,174.01C693.417,174.203 692.939,174.304 692.421,174.304C691.903,174.304 691.416,174.203 690.959,174.01C690.502,173.817 690.106,173.542 689.761,173.197C689.415,172.852 689.151,172.446 688.958,171.989C688.765,171.532 688.674,171.044 688.674,170.516C688.674,169.998 688.765,169.511 688.958,169.054C689.151,168.597 689.405,168.201 689.75,167.855C690.096,167.51 690.492,167.246 690.939,167.053C691.396,166.86 691.873,166.769 692.401,166.769C692.929,166.769 693.417,166.86 693.863,167.053C694.31,167.246 694.706,167.51 695.052,167.855ZM694.585,171.887C694.798,171.491 694.899,171.044 694.889,170.526C694.889,170.14 694.828,169.785 694.706,169.47C694.585,169.155 694.412,168.881 694.188,168.647C693.965,168.414 693.701,168.231 693.396,168.109C693.102,167.977 692.757,167.916 692.391,167.916C691.903,167.916 691.477,168.018 691.101,168.241C690.725,168.454 690.431,168.769 690.218,169.155C690.004,169.541 689.903,169.998 689.903,170.516C689.903,170.902 689.964,171.257 690.086,171.582C690.207,171.907 690.38,172.182 690.603,172.415C690.827,172.649 691.091,172.821 691.396,172.953C691.7,173.085 692.035,173.146 692.401,173.146C692.888,173.146 693.325,173.035 693.701,172.811C694.077,172.588 694.371,172.283 694.585,171.887ZM701.968,171.928L701.968,166.87L703.177,166.87L703.177,174.203L702.334,174.203L698.464,169.145L698.464,174.203L697.256,174.203L697.256,166.87L698.099,166.87L701.968,171.928ZM707.127,166.87L707.959,166.87L710.955,174.203L709.655,174.203L709.097,172.791L705.949,172.791L705.39,174.203L704.11,174.203L707.127,166.87ZM706.375,171.735L708.701,171.735L707.543,168.81L706.375,171.735ZM716.349,169.582L716.349,170.171L713.952,170.171L713.952,169.795L715.242,168.444C715.333,168.343 715.404,168.262 715.465,168.18C715.526,168.109 715.567,168.038 715.587,167.967C715.618,167.896 715.628,167.825 715.628,167.754C715.628,167.612 715.587,167.5 715.496,167.419C715.404,167.337 715.283,167.297 715.14,167.297C714.988,167.297 714.856,167.337 714.744,167.419C714.633,167.49 714.521,167.612 714.419,167.784L713.962,167.398C714.094,167.165 714.267,166.992 714.47,166.87C714.673,166.748 714.907,166.688 715.171,166.688C715.394,166.688 715.597,166.738 715.76,166.82C715.922,166.911 716.054,167.033 716.146,167.185C716.237,167.337 716.278,167.52 716.278,167.734C716.278,167.866 716.258,167.998 716.227,168.109C716.197,168.221 716.136,168.333 716.054,168.444C715.973,168.556 715.861,168.678 715.729,168.82L714.978,169.582L716.349,169.582ZM717.201,169.988C716.978,169.846 716.805,169.622 716.673,169.358C716.541,169.094 716.48,168.779 716.48,168.424C716.48,168.068 716.541,167.754 716.673,167.5C716.805,167.246 716.978,167.033 717.191,166.89C717.405,166.738 717.648,166.667 717.912,166.667C718.176,166.667 718.43,166.748 718.644,166.89C718.867,167.033 719.04,167.236 719.162,167.5C719.283,167.764 719.344,168.079 719.344,168.434C719.344,168.79 719.283,169.104 719.162,169.368C719.04,169.632 718.867,169.846 718.654,169.988C718.44,170.14 718.197,170.211 717.933,170.211C717.659,170.211 717.415,170.14 717.201,169.988ZM717.252,167.794C717.191,167.967 717.151,168.18 717.151,168.424C717.151,168.688 717.181,168.901 717.242,169.074C717.303,169.247 717.394,169.379 717.506,169.46C717.618,169.551 717.75,169.592 717.912,169.592C718.075,169.592 718.207,169.541 718.319,169.46C718.43,169.379 718.522,169.247 718.583,169.074C718.644,168.901 718.674,168.688 718.674,168.434C718.674,168.18 718.644,167.967 718.583,167.794C718.522,167.622 718.43,167.49 718.319,167.408C718.207,167.327 718.065,167.287 717.912,167.287C717.76,167.287 717.628,167.327 717.516,167.408C717.405,167.5 717.313,167.622 717.252,167.794ZM715.831,172.862L715.069,173.634L716.45,173.634L716.45,174.213L714.054,174.213L714.054,173.837L715.344,172.486C715.435,172.385 715.506,172.304 715.567,172.222C715.628,172.151 715.668,172.08 715.689,172.009C715.719,171.938 715.729,171.867 715.729,171.796C715.729,171.654 715.689,171.542 715.597,171.461C715.506,171.379 715.384,171.339 715.242,171.339C715.09,171.339 714.958,171.379 714.846,171.461C714.734,171.532 714.622,171.654 714.521,171.826L714.064,171.44C714.196,171.207 714.369,171.034 714.572,170.912C714.775,170.79 715.008,170.729 715.272,170.729C715.496,170.729 715.699,170.78 715.861,170.862C716.024,170.953 716.156,171.075 716.247,171.227C716.339,171.379 716.379,171.562 716.379,171.776C716.379,171.908 716.359,172.04 716.329,172.151C716.298,172.263 716.237,172.375 716.156,172.486C716.075,172.598 715.963,172.72 715.831,172.862ZM718.745,172.069C718.908,172.171 719.04,172.293 719.131,172.455C719.233,172.618 719.284,172.811 719.284,173.034C719.284,173.258 719.233,173.461 719.121,173.644C719.01,173.826 718.867,173.969 718.674,174.08C718.481,174.192 718.268,174.243 718.035,174.243C717.801,174.243 717.588,174.192 717.405,174.08C717.222,173.979 717.08,173.837 716.968,173.654C716.857,173.481 716.806,173.278 716.806,173.055C716.806,172.75 716.917,172.445 717.121,172.141L718.075,170.77L718.837,170.77L718.004,171.937C718.055,171.937 718.116,171.927 718.187,171.927C718.39,171.927 718.583,171.978 718.745,172.069ZM718.563,173.359C718.613,173.268 718.644,173.156 718.644,173.044C718.644,172.923 718.613,172.821 718.563,172.73C718.512,172.638 718.441,172.567 718.349,172.516C718.258,172.466 718.156,172.435 718.045,172.435C717.933,172.435 717.831,172.466 717.74,172.516C717.649,172.577 717.578,172.648 717.527,172.74C717.476,172.831 717.446,172.933 717.446,173.044C717.446,173.166 717.476,173.268 717.527,173.359C717.578,173.461 717.649,173.532 717.74,173.583C717.831,173.633 717.933,173.664 718.045,173.664C718.156,173.664 718.258,173.633 718.349,173.583C718.441,173.522 718.512,173.451 718.563,173.359Z" style="fill:rgb(29,29,27);"/>
                </g>
                <g id="symbol" transform="matrix(5.446969,0,0,5.446969,-394.916082,544.850037)">
                    <path d="M417.901,70.441C417.901,72.614 417.037,74.655 415.514,76.158C417.037,77.672 417.901,79.703 417.901,81.876C417.901,86.324 414.285,89.94 409.837,89.94C407.664,89.94 405.633,89.077 404.119,87.553C402.606,89.077 400.575,89.94 398.402,89.94C393.953,89.94 390.338,86.324 390.338,81.876C390.338,79.703 391.201,77.672 392.725,76.158C391.201,74.645 390.338,72.614 390.338,70.441C390.338,65.992 393.953,62.377 398.402,62.377C400.575,62.377 402.606,63.24 404.119,64.764C405.633,63.24 407.664,62.377 409.837,62.377C414.285,62.377 417.901,65.992 417.901,70.441ZM417.088,70.441C417.088,69.445 416.885,68.501 416.519,67.627L414.935,68.409L414.854,72.776L416.377,73.569C416.834,72.624 417.088,71.558 417.088,70.441ZM399.143,67.333C400.209,67.597 401.073,68.389 401.428,69.425C401.844,69.252 402.271,69.131 402.718,69.039L403.175,67.597L400.859,66.297L399.143,67.333ZM403.388,68.948C403.622,68.917 403.865,68.907 404.119,68.917C405.074,68.917 405.978,69.1 406.811,69.435C406.993,68.867 407.339,68.379 407.786,68.003L407.075,66.805L403.815,67.851C403.784,67.861 403.764,67.861 403.733,67.861L403.388,68.948ZM412.467,76.595L414.245,72.898L414.326,68.379L409.959,65.231L407.623,66.551L408.273,67.648C408.74,67.394 409.268,67.242 409.827,67.242C411.594,67.242 413.026,68.673 413.026,70.441C413.026,71.852 412.112,73.051 410.842,73.477C411.178,74.31 411.36,75.224 411.36,76.168C411.36,76.311 411.36,76.463 411.35,76.605L412.467,76.595ZM404.109,65.992C403.063,64.652 401.57,63.687 399.834,63.332L401.073,65.718L403.744,67.221L407.075,66.155L409.614,64.723L409.177,63.22C407.125,63.403 405.308,64.449 404.109,65.992ZM398.391,63.189C397.01,63.189 395.71,63.585 394.613,64.266L393.76,67.851L397.295,67.445C397.538,67.353 397.813,67.292 398.087,67.262L398.077,67.262L400.453,65.83L399.102,63.22C398.869,63.2 398.625,63.189 398.391,63.189ZM397.894,65.81C397.518,66.115 396.969,66.064 396.655,65.698C396.34,65.333 396.401,64.774 396.766,64.459C397.132,64.144 397.69,64.205 398.005,64.571C398.32,64.937 398.269,65.495 397.894,65.81ZM391.232,71.588L392.582,71.578L395.548,68.978C395.7,68.684 395.893,68.409 396.127,68.176L393.354,68.491L393.324,68.491C393.232,68.491 393.151,68.45 393.09,68.379C393.029,68.298 393.009,68.196 393.039,68.095L393.76,64.865C392.156,66.206 391.14,68.206 391.14,70.441C391.14,70.837 391.171,71.212 391.232,71.588ZM393.933,76.168C393.212,76.727 392.603,77.428 392.135,78.21L393.547,78.941L395.203,75.468L392.552,72.198L391.353,72.198C391.75,73.802 392.674,75.183 393.933,76.168ZM391.851,78.758C391.394,79.703 391.14,80.759 391.14,81.886C391.14,82.892 391.343,83.836 391.709,84.699L393.293,83.917L393.374,79.55L391.851,78.758ZM398.391,89.137L398.412,89.137L397.975,87.645L393.557,84.456L391.963,85.248C393.182,87.553 395.599,89.137 398.391,89.137ZM404.109,86.334C405.155,87.675 406.658,88.64 408.385,88.995L407.146,86.609L404.475,85.106L401.144,86.172L398.605,87.604L399.041,89.107C401.093,88.924 402.911,87.878 404.109,86.334ZM409.827,89.137C411.218,89.137 412.508,88.741 413.615,88.061L414.468,84.476L410.934,84.882C410.68,84.974 410.406,85.035 410.132,85.065L410.142,85.065L407.765,86.497L409.116,89.107C409.35,89.127 409.593,89.137 409.827,89.137ZM410.324,86.528C410.7,86.213 411.248,86.274 411.563,86.639C411.878,87.005 411.817,87.564 411.452,87.878C411.086,88.193 410.527,88.132 410.213,87.767C409.898,87.401 409.948,86.843 410.324,86.528ZM417.088,81.886C417.088,81.49 417.058,81.114 417.007,80.749L415.646,80.749L412.681,83.349C412.528,83.643 412.335,83.917 412.102,84.151L414.874,83.836L414.905,83.836C414.996,83.836 415.077,83.877 415.138,83.948C415.199,84.029 415.22,84.131 415.189,84.232L414.468,87.462C416.073,86.131 417.088,84.12 417.088,81.886ZM416.875,80.129C416.469,78.535 415.545,77.144 414.295,76.168C415.016,75.61 415.626,74.909 416.093,74.117L414.681,73.386L413.026,76.859L415.677,80.129L416.875,80.129ZM409.827,63.189L409.807,63.189L410.243,64.682L414.661,67.871L416.255,67.079C415.037,64.774 412.62,63.189 409.827,63.189ZM410.853,78.85C412.112,79.276 413.026,80.475 413.046,81.876C413.046,81.998 413.036,82.11 413.026,82.231L415.118,80.393L412.528,77.204L411.299,77.215C411.208,77.783 411.056,78.332 410.853,78.85ZM407.572,82.638C407.897,83.613 408.801,84.273 409.837,84.263C411.157,84.263 412.224,83.196 412.224,81.876C412.224,80.85 411.574,79.936 410.599,79.611C410.385,79.54 410.213,79.388 410.121,79.185C410.02,78.982 410.02,78.748 410.101,78.545C410.406,77.783 410.558,76.981 410.558,76.158C410.558,75.336 410.406,74.533 410.101,73.772C410.02,73.569 410.03,73.335 410.121,73.132C410.213,72.929 410.385,72.776 410.599,72.705C411.574,72.38 412.224,71.466 412.224,70.441C412.224,69.12 411.157,68.054 409.837,68.054C408.811,68.054 407.897,68.704 407.572,69.679C407.501,69.892 407.349,70.065 407.146,70.156C407.034,70.207 406.912,70.227 406.8,70.227C406.699,70.227 406.597,70.207 406.496,70.166C405.734,69.862 404.932,69.709 404.109,69.709C403.287,69.709 402.484,69.862 401.723,70.166C401.621,70.207 401.519,70.227 401.418,70.227C401.296,70.227 401.184,70.207 401.073,70.156C400.869,70.065 400.717,69.892 400.646,69.679C400.321,68.704 399.407,68.054 398.381,68.054C397.061,68.054 395.995,69.12 395.995,70.441C395.995,71.466 396.645,72.38 397.62,72.705C397.833,72.776 398.005,72.929 398.097,73.132C398.198,73.335 398.198,73.569 398.117,73.772C397.813,74.533 397.66,75.336 397.66,76.158C397.66,76.981 397.813,77.783 398.117,78.545C398.198,78.748 398.188,78.982 398.097,79.185C398.005,79.388 397.833,79.54 397.62,79.611C396.645,79.936 395.995,80.85 395.995,81.876C395.995,83.196 397.061,84.263 398.381,84.263C399.407,84.263 400.321,83.613 400.646,82.638C400.717,82.424 400.869,82.252 401.073,82.16C401.184,82.11 401.306,82.089 401.418,82.089C401.519,82.089 401.621,82.11 401.723,82.15C402.484,82.455 403.287,82.607 404.109,82.607C404.932,82.607 405.734,82.455 406.496,82.15C406.597,82.11 406.699,82.089 406.8,82.089C406.922,82.089 407.034,82.11 407.146,82.16C407.349,82.252 407.501,82.424 407.572,82.638ZM404.109,72.157C406.323,72.157 408.121,73.955 408.121,76.169C408.121,78.383 406.323,80.18 404.109,80.18C401.895,80.18 400.098,78.383 400.098,76.169C400.098,73.955 401.895,72.157 404.109,72.157ZM404.109,79.358C405.876,79.358 407.308,77.926 407.308,76.159C407.308,74.392 405.876,72.959 404.109,72.959C402.342,72.959 400.91,74.392 400.91,76.159C400.91,77.926 402.342,79.358 404.109,79.358ZM409.085,84.994C408.009,84.74 407.146,83.938 406.8,82.902C406.384,83.074 405.957,83.196 405.511,83.288L405.054,84.73L407.369,86.03L409.085,84.994ZM397.376,73.477C396.106,73.051 395.192,71.852 395.182,70.451C395.182,70.329 395.192,70.217 395.203,70.095L393.11,71.933L395.7,75.123L396.929,75.112C397.02,74.544 397.173,73.995 397.376,73.477ZM395.751,75.732L393.974,79.428L393.892,83.948L398.259,87.096L400.595,85.776L399.945,84.679C399.478,84.933 398.95,85.085 398.391,85.085C396.624,85.085 395.192,83.653 395.192,81.886C395.192,80.475 396.106,79.276 397.376,78.85C397.041,78.017 396.858,77.103 396.858,76.158C396.858,76.016 396.858,75.864 396.868,75.722L395.751,75.732ZM400.443,84.334L401.144,85.522L404.404,84.476C404.434,84.466 404.454,84.466 404.485,84.466L404.83,83.379C404.597,83.41 404.353,83.42 404.109,83.42C403.155,83.42 402.251,83.237 401.418,82.902C401.235,83.47 400.89,83.958 400.443,84.334Z" style="fill:rgb(249,66,58);"/>
                </g>
                <g transform="matrix(0.431706,0,0,0.431706,1657.641243,1115.179034)">
                    <path d="M-0,21.155C1.88,21.155 3.793,20.799 5.643,20.047C11.422,17.698 14.94,12.156 14.995,6.284C15.067,4.292 14.74,2.286 13.996,0.394L-2.771,-42.244C-4.973,-47.844 -10.377,-51.526 -16.395,-51.526L-17.65,-51.526C-25.55,-51.526 -31.518,-45.45 -32.23,-38.324C-32.532,-35.872 -32.237,-33.313 -31.241,-30.861L-13.901,11.8C-11.534,17.625 -5.923,21.155 -0,21.155M79.643,-50.135C72.117,-53.599 63.208,-50.307 59.745,-42.781L-12.64,114.485C-16.104,122.01 -12.811,130.919 -5.286,134.383C-3.254,135.318 -1.123,135.76 0.976,135.76C6.652,135.76 12.083,132.522 14.612,127.028L86.997,-30.238C90.46,-37.763 87.168,-46.671 79.643,-50.135M388.005,34.95C384.796,40.999 380.307,45.72 374.534,49.109C368.76,52.502 362.115,54.195 354.602,54.195C352.916,54.195 351.276,54.095 349.672,53.916L380.319,-15.524C383.296,-12.831 385.814,-9.662 387.867,-6.012C391.167,-0.144 392.816,6.634 392.816,14.332C392.816,22.03 391.21,28.903 388.005,34.95M321.475,34.95C318.266,28.903 316.664,22.03 316.664,14.332C316.664,6.634 318.266,-0.144 321.475,-6.012C324.679,-11.876 329.172,-16.502 334.945,-19.895C340.719,-23.285 347.27,-24.981 354.602,-24.981C356.562,-24.981 358.456,-24.86 360.291,-24.629L329.49,45.158C326.265,42.328 323.585,38.933 321.475,34.95M389.792,-45.051C379.345,-51.098 367.613,-54.123 354.602,-54.123C341.771,-54.123 330.134,-51.052 319.688,-44.913C309.241,-38.77 300.946,-30.57 294.808,-20.308C288.665,-10.041 285.598,1.505 285.598,14.332C285.598,27.163 288.665,38.8 294.808,49.246C300.946,59.694 309.241,67.988 319.688,74.126C330.134,80.269 341.771,83.336 354.602,83.336C367.613,83.336 379.345,80.269 389.792,74.126C400.239,67.988 408.529,59.694 414.672,49.246C420.81,38.8 423.881,27.163 423.881,14.332C423.881,1.505 420.81,-10.089 414.672,-20.445C408.529,-30.798 400.239,-39.002 389.792,-45.051M543.181,-46.562C535.483,-51.601 526.686,-54.123 516.789,-54.123C507.073,-54.123 498.322,-51.876 490.535,-47.387C485.455,-44.458 481.112,-40.818 477.476,-36.49C477.476,-44.71 470.812,-51.374 462.592,-51.374L462.119,-51.374C453.899,-51.374 447.235,-44.71 447.235,-36.49L447.235,65.703C447.235,73.923 453.899,80.587 462.119,80.587L462.592,80.587C470.812,80.587 477.476,73.923 477.476,65.703L477.476,4.435C477.476,-1.428 478.756,-6.652 481.325,-11.236C483.889,-15.815 487.463,-19.388 492.046,-21.957C496.626,-24.522 501.849,-25.806 507.717,-25.806C516.514,-25.806 523.705,-22.963 529.298,-17.284C534.887,-11.6 537.683,-4.363 537.683,4.435L537.683,65.703C537.683,73.923 544.347,80.587 552.567,80.587L553.04,80.587C561.26,80.587 567.924,73.923 567.924,65.703L567.924,-2.163C567.924,-10.776 565.725,-19.071 561.326,-27.044C556.927,-35.016 550.879,-41.519 543.181,-46.562M266.336,42.837C261.158,37.658 253.049,37.144 247.074,41.377C243.614,43.828 239.846,45.947 235.769,47.735C227.612,51.308 217.668,53.095 205.941,53.095C196.409,53.095 187.701,51.446 179.824,48.147C171.941,44.848 165.116,40.131 159.342,33.988C153.569,27.85 149.123,20.565 146.009,12.133C142.89,3.704 141.335,-5.553 141.335,-15.635C141.335,-25.712 142.89,-34.969 146.009,-43.401C149.123,-51.829 153.569,-59.114 159.342,-65.257C165.116,-71.395 171.941,-76.116 179.824,-79.415C187.701,-82.715 196.409,-84.364 205.941,-84.364C216.753,-84.364 226.238,-82.62 234.395,-79.14C238.482,-77.394 242.259,-75.303 245.726,-72.866C251.699,-68.667 259.778,-69.197 264.941,-74.36L265.221,-74.639C271.708,-81.127 270.82,-91.915 263.328,-97.211C258.029,-100.957 252.371,-104.189 246.354,-106.907C234.988,-112.036 221.516,-114.605 205.941,-114.605C192.01,-114.605 179.136,-112.036 167.315,-106.907C155.493,-101.774 145.184,-94.717 136.387,-85.739C127.589,-76.757 120.806,-66.262 116.042,-54.261C111.274,-42.254 108.894,-29.38 108.894,-15.635C108.894,-1.888 111.274,10.99 116.042,22.991C120.806,34.998 127.589,45.535 136.387,54.608C145.184,63.68 155.493,70.738 167.315,75.776C179.136,80.815 192.01,83.336 205.941,83.336C221.336,83.336 234.988,80.768 246.904,75.639C253.274,72.896 259.2,69.601 264.68,65.755C272.217,60.467 273.147,49.648 266.636,43.137L266.336,42.837ZM-85.645,-34.741C-88.579,-29.883 -92.565,-26.124 -97.604,-23.47C-102.647,-20.81 -108.463,-19.483 -115.061,-19.483L-153.275,-19.483L-153.275,-84.364L-115.061,-84.364C-108.463,-84.364 -102.647,-83.032 -97.604,-80.378C-92.565,-77.719 -88.579,-73.96 -85.645,-69.106C-82.716,-64.248 -81.246,-58.521 -81.246,-51.924C-81.246,-45.325 -82.716,-39.595 -85.645,-34.741M-80.834,-104.433C-90.456,-109.382 -101.316,-111.856 -113.412,-111.856L-169.082,-111.856C-177.813,-111.856 -184.891,-104.778 -184.891,-96.047L-184.891,64.78C-184.891,73.51 -177.814,80.587 -169.083,80.587C-160.353,80.587 -153.275,73.51 -153.275,64.78L-153.275,8.009L-113.412,8.009C-101.316,8.009 -90.456,5.534 -80.834,0.586C-71.212,-4.363 -63.609,-11.326 -58.016,-20.308C-52.428,-29.286 -49.631,-39.827 -49.631,-51.924C-49.631,-64.02 -52.428,-74.557 -58.016,-83.539C-63.609,-92.517 -71.212,-99.484 -80.834,-104.433M868.692,1.686C865.393,-5.093 861.037,-10.638 855.633,-14.947C850.225,-19.251 844.267,-22.782 837.764,-25.531C831.256,-28.281 824.748,-30.755 818.245,-32.954C811.737,-35.154 805.779,-37.49 800.375,-39.965C794.967,-42.439 790.615,-45.463 787.317,-49.037C784.017,-52.611 782.368,-57.327 782.368,-63.195C782.368,-70.158 785.07,-75.566 790.478,-79.415C795.882,-83.264 803.352,-85.188 812.884,-85.188C820.582,-85.188 827.407,-83.677 833.365,-80.652C835.882,-79.374 838.359,-77.809 840.795,-75.957C846.927,-71.296 855.515,-71.737 860.962,-77.183C867.639,-83.86 866.665,-94.888 858.999,-100.402C855.535,-102.893 851.756,-105.153 847.661,-107.182C837.67,-112.131 826.355,-114.605 813.709,-114.605C801.977,-114.605 791.346,-112.496 781.818,-108.282C772.286,-104.063 764.726,-97.972 759.137,-90C753.545,-82.027 750.752,-72.358 750.752,-60.996C750.752,-51.098 752.402,-42.941 755.701,-36.528C759,-30.11 763.351,-24.887 768.759,-20.858C774.163,-16.824 780.121,-13.478 786.629,-10.823C793.132,-8.164 799.64,-5.78 806.148,-3.676C812.652,-1.566 818.61,0.818 824.018,3.473C829.422,6.132 833.777,9.478 837.077,13.507C840.191,17.315 841.836,22.184 842.01,28.113C842.219,35.238 839.313,42.155 833.662,46.501C827.234,51.447 818.38,53.92 807.11,53.92C795.744,53.92 786.397,51.768 779.069,47.459C775.655,45.455 772.459,43.082 769.482,40.341C763.584,34.91 754.454,35.098 748.784,40.767C742.762,46.789 742.993,56.603 749.252,62.378C754.852,67.544 760.851,71.78 767.247,75.089C777.875,80.587 790.796,83.336 806.011,83.336C826.72,83.336 843.168,78.298 855.359,68.216C867.545,58.138 873.641,44.483 873.641,27.253C873.641,16.99 871.991,8.468 868.692,1.686M729.389,65.604L729.389,66.704C729.389,74.371 723.173,80.587 715.505,80.587L615.711,80.587C606.98,80.587 599.902,73.509 599.902,64.779L599.902,-96.047C599.902,-104.778 606.98,-111.856 615.711,-111.856L714.131,-111.856C721.798,-111.856 728.014,-105.64 728.014,-97.972L728.014,-96.873C728.014,-89.205 721.798,-82.989 714.131,-82.989L631.518,-82.989L631.518,-31.58L693.158,-31.58C700.826,-31.58 707.042,-25.364 707.042,-17.696C707.042,-10.029 700.826,-3.813 693.158,-3.813L631.518,-3.813L631.518,51.721L715.505,51.721C723.173,51.721 729.389,57.937 729.389,65.604" style="fill:rgb(29,29,27);fill-rule:nonzero;"/>
                </g>
            </g>
        </g>
    </g>
</svg>
