<?xml version="1.0" encoding="UTF-8" standalone="no"?>
<!DOCTYPE svg PUBLIC "-//W3C//DTD SVG 1.1//EN" "http://www.w3.org/Graphics/SVG/1.1/DTD/svg11.dtd">
<svg width="100%" height="100%" viewBox="0 0 432 432" version="1.1" xmlns="http://www.w3.org/2000/svg" xmlns:xlink="http://www.w3.org/1999/xlink" xml:space="preserve" xmlns:serif="http://www.serif.com/" style="fill-rule:evenodd;clip-rule:evenodd;stroke-linejoin:round;stroke-miterlimit:2;">
    <g transform="matrix(1,0,0,1,-4571,0)">
        <g id="symbol-black-light" transform="matrix(1.006093,0,0,1.006103,-28.228858,-0.771768)">
            <rect x="4571.377" y="0.767" width="428.492" height="428.487" style="fill:none;"/>
            <g id="symbol-color-light" transform="matrix(4.141434,0,0,4.141394,4003.359765,-1342.891099)">
                <path d="M240.083,354.721C240.083,362.826 236.884,370.422 231.196,376.049C236.884,381.675 240.083,389.271 240.083,397.376C240.083,413.97 226.586,427.467 209.991,427.467C201.887,427.467 194.29,424.268 188.664,418.581C183.038,424.268 175.441,427.467 167.337,427.467C150.742,427.467 137.245,413.97 137.245,397.376C137.245,389.271 140.444,381.675 146.131,376.049C140.444,370.422 137.245,362.826 137.245,354.721C137.245,338.127 150.742,324.63 167.337,324.63C175.441,324.63 183.038,327.829 188.664,333.516C194.29,327.829 201.887,324.63 209.991,324.63C226.586,324.63 240.083,338.127 240.083,354.721ZM142.932,385.717C141.236,389.251 140.282,393.212 140.292,397.386C140.292,401.093 141.054,404.627 142.414,407.857L148.325,404.942L148.63,388.662L142.932,385.717ZM167.337,424.441L167.428,424.441L165.803,418.865L149.331,406.983L143.369,409.918C147.899,418.54 156.937,424.441 167.337,424.441ZM188.664,338.107C184.774,333.12 179.168,329.525 172.74,328.215L177.36,337.122L187.313,342.717L199.744,338.736L209.199,333.394L207.564,327.778C199.906,328.459 193.153,332.358 188.664,338.107ZM167.337,327.666C162.167,327.666 157.333,329.129 153.22,331.648L150.031,345.023L163.234,343.52C164.178,343.174 165.174,342.951 166.209,342.849L166.169,342.849L175.014,337.518L169.967,327.798C169.104,327.707 168.23,327.666 167.337,327.666ZM165.479,337.416C164.087,338.584 162.016,338.412 160.838,337.01C159.67,335.619 159.853,333.537 161.244,332.369C162.635,331.201 164.717,331.384 165.885,332.775C167.053,334.166 166.87,336.248 165.479,337.416ZM210.001,327.666L209.91,327.666L211.535,333.242L228.007,345.124L233.969,342.189C229.439,333.567 220.401,327.666 210.001,327.666ZM237.056,354.721C237.056,351.015 236.295,347.47 234.924,344.251L229.013,347.166L228.708,363.445L234.395,366.39C236.102,362.856 237.056,358.895 237.056,354.721ZM161.659,374.414L157.496,374.434L150.874,388.225L150.559,405.064L166.839,416.804L175.532,411.899L173.095,407.796C171.389,408.75 169.419,409.299 167.316,409.299C160.735,409.299 155.394,403.967 155.394,397.376C155.394,392.115 158.806,387.657 163.528,386.072C162.289,382.965 161.599,379.593 161.599,376.049C161.599,375.504 161.629,374.959 161.659,374.414ZM201.562,400.219C202.78,403.845 206.172,406.282 209.991,406.282C214.896,406.282 218.887,402.291 218.887,397.386C218.887,393.567 216.45,390.175 212.825,388.957C212.032,388.693 211.382,388.114 211.037,387.352C210.692,386.601 210.661,385.727 210.976,384.955C212.114,382.112 212.692,379.116 212.692,376.059C212.692,373.002 212.114,370.006 210.976,367.162C210.661,366.39 210.692,365.527 211.037,364.766C211.393,364.004 212.032,363.425 212.825,363.161C216.45,361.952 218.887,358.56 218.887,354.732C218.887,349.826 214.896,345.835 209.991,345.835C206.172,345.835 202.78,348.273 201.562,351.898C201.298,352.69 200.719,353.34 199.957,353.686C199.561,353.879 199.124,353.97 198.688,353.97C198.302,353.97 197.926,353.899 197.56,353.757C194.717,352.619 191.721,352.04 188.664,352.04C185.607,352.04 182.611,352.619 179.767,353.757C179.402,353.899 179.026,353.97 178.64,353.97C178.203,353.97 177.777,353.868 177.371,353.686C176.609,353.33 176.03,352.69 175.766,351.898C174.547,348.273 171.155,345.835 167.327,345.835C162.421,345.835 158.43,349.826 158.43,354.732C158.43,358.55 160.868,361.942 164.493,363.161C165.285,363.425 165.935,364.004 166.281,364.766C166.626,365.517 166.656,366.39 166.341,367.162C165.204,370.006 164.625,373.002 164.625,376.059C164.625,379.116 165.204,382.112 166.341,384.955C166.656,385.727 166.626,386.59 166.281,387.352C165.925,388.114 165.285,388.693 164.493,388.957C160.868,390.165 158.43,393.557 158.43,397.386C158.43,402.291 162.421,406.282 167.327,406.282C171.155,406.282 174.547,403.845 175.766,400.219C176.03,399.427 176.609,398.777 177.371,398.432C177.767,398.239 178.203,398.148 178.64,398.148C179.026,398.148 179.402,398.219 179.767,398.361C182.611,399.498 185.607,400.077 188.664,400.077C191.721,400.077 194.717,399.498 197.56,398.361C197.926,398.219 198.302,398.148 198.688,398.148C199.124,398.148 199.551,398.249 199.957,398.432C200.719,398.787 201.298,399.427 201.562,400.219ZM188.665,361.1C196.921,361.1 203.624,367.813 203.624,376.059C203.624,384.306 196.911,391.019 188.665,391.019C180.418,391.019 173.705,384.306 173.705,376.059C173.705,367.813 180.418,361.1 188.665,361.1ZM188.665,387.982C195.256,387.982 200.598,382.64 200.587,376.059C200.587,369.478 195.256,364.136 188.665,364.136C182.084,364.136 176.742,369.468 176.742,376.059C176.742,382.64 182.073,387.982 188.665,387.982ZM163.538,366.035C158.816,364.451 155.414,359.982 155.414,354.742C155.414,354.295 155.434,353.848 155.485,353.411L147.675,360.267L157.323,372.169L161.893,372.149C162.198,370.016 162.767,367.975 163.538,366.035ZM174.994,406.526L177.645,410.964L189.791,407.075C189.883,407.044 189.974,407.024 190.076,407.024L191.365,402.972C190.482,403.063 189.578,403.114 188.664,403.114C185.12,403.114 181.738,402.423 178.64,401.184C177.939,403.286 176.66,405.125 174.994,406.526ZM170.119,343.124C174.131,344.088 177.35,347.064 178.65,350.923C180.194,350.314 181.799,349.826 183.464,349.501L185.17,344.109L176.538,339.254L170.119,343.124ZM185.962,349.136C186.856,349.044 187.75,348.994 188.664,349.014C192.208,349.014 195.59,349.705 198.688,350.944C199.388,348.841 200.668,347.003 202.334,345.602L199.683,341.143L187.537,345.033C187.445,345.063 187.354,345.084 187.252,345.084L185.962,349.136ZM219.832,377.674L226.443,363.872L226.758,347.034L210.479,335.293L201.785,340.199L204.223,344.302C205.929,343.347 207.899,342.799 210.001,342.799C216.582,342.799 221.924,348.13 221.924,354.721C221.924,359.982 218.512,364.441 213.789,366.025C215.028,369.133 215.719,372.504 215.719,376.049C215.719,376.607 215.699,377.156 215.668,377.694L219.832,377.674ZM140.617,358.987L145.674,358.987L156.724,349.278C157.293,348.161 158.024,347.155 158.897,346.282L148.559,347.45C148.518,347.46 148.477,347.46 148.437,347.46C148.092,347.46 147.767,347.308 147.553,347.044C147.31,346.749 147.238,346.353 147.35,345.987L150.041,333.943C144.08,338.909 140.282,346.373 140.282,354.721C140.282,356.174 140.393,357.596 140.617,358.987ZM150.722,376.059C148.031,378.161 145.746,380.751 143.999,383.706L149.249,386.428L155.444,373.459L145.563,361.262L141.084,361.262C142.567,367.213 146.03,372.393 150.722,376.059ZM207.218,408.984C203.207,408.029 199.988,405.043 198.698,401.184C197.154,401.794 195.55,402.281 193.884,402.606L192.168,407.999L200.8,412.853L207.218,408.984ZM213.799,386.083C218.522,387.667 221.924,392.125 221.924,397.376C221.924,397.823 221.904,398.269 221.853,398.706L229.663,391.851L220.015,379.948L215.445,379.969C215.14,382.101 214.571,384.143 213.799,386.083ZM188.664,414.001C192.564,418.997 198.17,422.593 204.588,423.893L199.967,414.986L190.015,409.39L177.584,413.371L168.129,418.713L169.764,424.329C177.421,423.649 184.175,419.749 188.664,414.001ZM210.001,424.441C215.17,424.441 220.005,422.989 224.118,420.46L227.307,407.085L214.104,408.588C213.16,408.933 212.164,409.156 211.128,409.258L211.169,409.258L202.323,414.59L207.371,424.309C208.234,424.4 209.107,424.441 210.001,424.441ZM211.86,414.691C213.251,413.523 215.323,413.706 216.501,415.097C217.669,416.489 217.486,418.571 216.095,419.739C214.704,420.907 212.622,420.724 211.454,419.332C210.286,417.941 210.469,415.859 211.86,414.691ZM237.056,397.386C237.056,395.934 236.944,394.512 236.721,393.12L231.663,393.12L220.614,402.829C220.045,403.947 219.314,404.952 218.441,405.825L228.779,404.657C228.82,404.647 228.86,404.647 228.901,404.647C229.246,404.647 229.571,404.8 229.785,405.064C230.028,405.358 230.099,405.754 229.988,406.12L227.296,418.175C233.258,413.209 237.056,405.734 237.056,397.386ZM236.254,390.846C234.771,384.894 231.308,379.725 226.626,376.059C229.317,373.957 231.603,371.357 233.339,368.401L228.089,365.68L221.894,378.649L231.775,390.846L236.254,390.846Z" style="fill:rgb(29,29,27);"/>
            </g>
        </g>
    </g>
</svg>
