<svg width="473" height="242" viewBox="0 0 473 242" fill="none" xmlns="http://www.w3.org/2000/svg">
<g clip-path="url(#clip0_94_15)">
<path d="M165.134 97.0574C165.132 97.0546 165.128 97.0531 165.124 97.0531C134.617 97.056 113.997 118.874 113.997 150.84C113.997 182.808 135.267 204.202 165.993 204.202C189.785 204.202 209.451 189.267 213.464 168.954C213.594 168.298 213.084 167.696 212.415 167.696H191.262C190.8 167.696 190.39 167.992 190.226 168.425C186.419 178.538 177.535 183.902 165.777 183.902C149.659 183.902 139.348 173.535 137.631 156.253H212.885C213.459 156.253 213.934 155.806 213.962 155.232C214.121 151.981 214.103 149.096 213.907 146.745C212.837 115.421 194.357 97.0643 165.145 97.0617C165.141 97.0617 165.137 97.0602 165.134 97.0574ZM138.701 138.53C141.928 123.626 150.945 115.844 164.914 115.844C178.884 115.844 187.901 124.051 189.834 138.53H138.701Z" fill="#14140F"/>
<path d="M347.098 142.404L387.15 101.279C387.234 101.193 387.281 101.077 387.281 100.956C387.281 100.701 387.074 100.494 386.819 100.494H358.094C357.8 100.494 357.518 100.613 357.314 100.826L318.097 141.536V60.5355C318.097 59.9364 317.612 59.4507 317.013 59.4507H295.332C294.733 59.4507 294.248 59.9364 294.248 60.5355V199.86C294.248 200.459 294.733 200.945 295.332 200.945H317.013C317.612 200.945 318.097 200.459 318.097 199.86V160.648H332.24L361.174 200.498C361.378 200.779 361.704 200.945 362.052 200.945H388.62C389.067 200.945 389.43 200.582 389.43 200.135C389.43 199.962 389.374 199.794 389.272 199.655L347.098 142.404Z" fill="#14140F"/>
<path d="M56.6811 97.0531C40.6231 97.0531 29.1811 108.773 27.2491 113.944H22.5981V101.599C22.5981 101 22.1121 100.515 21.5141 100.515H0.628065C0.00606525 100.515 -0.48891 101.037 -0.45891 101.659C-0.26391 105.646 -0.0869006 111.835 -0.0869006 119.088V240.915C-0.0869006 241.514 0.39906 242 0.99806 242H22.4631C23.0621 242 23.5471 241.514 23.5471 240.915V193.227H28.1981C32.6331 200.228 43.5651 204.41 55.5591 204.41C85.8541 204.41 105.19 180.431 105.19 150.623C105.19 120.815 87.6141 97.0531 56.6811 97.0531ZM51.6851 183.459C34.4971 183.459 22.2531 170.281 22.2531 150.623C22.2531 130.965 34.4971 118.221 51.6851 118.221C68.8731 118.221 80.694 130.965 80.694 150.623C80.694 170.281 68.6661 183.459 51.6851 183.459Z" fill="#14140F"/>
<path d="M253.694 110.875H249.044L248.99 101.56C248.986 100.963 248.502 100.482 247.905 100.482H226.271C225.652 100.482 225.159 100.998 225.186 101.616C225.383 106.128 225.565 112.503 225.565 119.055V199.84C225.565 200.439 226.051 200.924 226.65 200.924H248.33C248.929 200.924 249.415 200.439 249.415 199.84V151.024C249.415 131.799 260.157 121.216 278.208 121.216C279.959 121.216 281.71 121.36 283.46 121.53C284.099 121.593 284.654 121.092 284.654 120.45V100.43C284.654 99.9469 284.334 99.5205 283.862 99.4196C282.623 99.1551 280.837 98.9192 279.028 98.8073C267.914 99.1196 258.544 102.087 253.703 110.866L253.694 110.875Z" fill="#14140F"/>
<path d="M417.422 0.938163C417.495 0.400699 417.954 0 418.496 0H426.023C426.565 0 427.024 0.400699 427.098 0.938163L431.481 33.0944C431.58 33.8185 430.949 34.4311 430.228 34.311L422.438 33.0121C422.32 32.9924 422.199 32.9924 422.081 33.0121L414.291 34.311C413.571 34.4311 412.94 33.8185 413.038 33.0944L417.422 0.938163Z" fill="#14140F"/>
<path d="M471.506 58.1947C472.068 58.1478 472.5 57.6778 472.5 57.1137V49.676C472.5 49.1162 472.074 48.6483 471.517 48.596L422.361 43.986C422.294 43.9797 422.226 43.9797 422.158 43.986L373.002 48.596C372.445 48.6483 372.019 49.1162 372.019 49.676V57.1137C372.019 57.6778 372.452 58.1478 373.014 58.1947L409.304 61.22C409.559 61.2413 409.799 61.3525 409.98 61.5339L412.579 64.1333C412.748 64.3024 412.856 64.5228 412.887 64.76L417.427 99.5733C417.497 100.114 417.957 100.518 418.502 100.518H426.018C426.562 100.518 427.022 100.114 427.093 99.5732L431.632 64.76C431.663 64.5228 431.771 64.3024 431.941 64.1333L434.539 61.5339C434.72 61.3525 434.96 61.2413 435.216 61.22L471.506 58.1947Z" fill="#14140F"/>
</g>
<defs>
<clipPath id="clip0_94_15">
<rect width="473" height="242" fill="white"/>
</clipPath>
</defs>
</svg>
