<svg width="1280" height="368" viewBox="0 0 1280 368" fill="none" xmlns="http://www.w3.org/2000/svg">
<g clip-path="url(#clip0_75_31936)">
<path d="M1162.58 146.327V291.158H1163.06C1172.72 217.994 1215.66 170.182 1280 147.424V0C1206 13.0058 1162.57 60.1577 1162.57 146.327H1162.58Z" fill="#14E5C5"/>
<path d="M1024.88 270.185L1142.31 367.724V174.254L1024.88 76.7056V270.175V270.185Z" fill="#14E5C5"/>
<path d="M911.365 103.08V61.357C865.859 52.9251 816.55 73.1543 816.55 132.15V148.159H747.328V132.15C747.328 101.388 769.659 96.7488 789.888 103.07V61.3477C744.372 52.9158 695.073 73.145 695.073 132.141V148.149H660.778V191.555H695.073V360.11H747.328V191.555H816.55V360.11H868.806V191.555H911.365V148.149H868.806V132.141C868.806 101.378 891.136 96.7395 911.365 103.061V103.08Z" fill="#03140F"/>
<path d="M588.237 360.119V148.159H640.493V360.119H588.237ZM580.651 84.1056C580.651 65.1407 595.405 50.3964 614.36 50.3964C633.316 50.3964 648.497 65.1407 648.497 84.1056C648.497 103.07 633.743 118.242 614.36 118.242C594.977 118.242 580.651 103.498 580.651 84.1056Z" fill="#03140F"/>
<path d="M436.89 360.138V148.177H489.145L487.881 206.327C497.15 157.027 532.132 140.591 567.943 147.75V199.578C527.066 193.674 489.145 212.221 489.145 269.952V360.128H436.89V360.138Z" fill="#03140F"/>
<path d="M316.165 367.724C252.53 367.724 207.024 320.107 207.024 253.944C207.024 187.78 252.54 140.591 315.319 140.591C388.641 140.591 427.835 203.798 418.557 269.962H259.689C261.371 302.834 284.548 326.847 316.574 326.847C341.861 326.847 362.927 312.521 370.094 291.027L414.764 297.767C406.332 336.961 367.566 367.724 316.156 367.724H316.165ZM260.126 230.767H368.003C368.003 202.534 346.509 179.776 315.328 179.776C286.249 179.776 263.919 200.424 260.126 230.767Z" fill="#03140F"/>
<path d="M85.2212 360.138L0 148.177H55.6768L113.064 303.252L170.879 148.177H224.409L139.187 360.138H85.2305H85.2212Z" fill="#03140F"/>
</g>
<defs>
<clipPath id="clip0_75_31936">
<rect width="1280" height="368" fill="white"/>
</clipPath>
</defs>
</svg>
